<svg xmlns="http://www.w3.org/2000/svg" xmlns:xlink="http://www.w3.org/1999/xlink" width="390" height="844" viewBox="0 0 390 844">
  <defs>
    <clipPath id="clip-iPhone_13_Pro_12_Pro_4">
      <rect width="390" height="844"/>
    </clipPath>
  </defs>
  <g id="iPhone_13_Pro_12_Pro_4" data-name="iPhone 13 Pro, 12 Pro – 4" clip-path="url(#clip-iPhone_13_Pro_12_Pro_4)">
    <g id="Group_3" data-name="Group 3" transform="translate(40.372 184.565)">
      <path id="Path_4" data-name="Path 4" d="M390.643,2371.119h50.191a49.753,49.753,0,0,0-11.688,27.5c-1.375,16.5,6.875,35.753,6.875,35.753l10.313,17.188s-2.75,25.439-5.5,37.815.687,28.877,0,39.877-17.189,74.943-19.251,81.131-22.689-55-24.752-61.192-8.088-38.839-8.088-40.9,3.275-22.353,1.9-26.478-2.75-63.942-3.438-83.193S390.643,2371.119,390.643,2371.119Z" transform="translate(-387.128 -2370.362)" fill="#f6e6b2" stroke="#aaa07f" stroke-width="1"/>
      <path id="Path_5" data-name="Path 5" d="M442.819,2371.119H392.628a49.754,49.754,0,0,1,11.688,27.5c1.375,16.5-6.875,35.753-6.875,35.753l-10.313,17.188s2.75,25.439,5.5,37.815-.688,28.877,0,39.877,17.189,74.943,19.251,81.131,22.689-55,24.752-61.192,8.088-38.839,8.088-40.9-3.275-22.353-1.9-26.478,2.75-63.942,3.438-83.193S442.819,2371.119,442.819,2371.119Z" transform="translate(-146.952 -2370.362)" fill="#f6e6b2" stroke="#aaa07f" stroke-width="1"/>
      <path id="Path_6" data-name="Path 6" d="M441.355,2450.277s-6.188-6.188-12.376-23.376-5.5-37.815,0-48.816,7.563-6.876,7.563-6.876H628.368s19.251,15.126,10.313,40.565-17.189,38.5-17.189,38.5v13.751s-30.94-7.563-59.129-8.938-74.943-2.062-86.631,0-34.378,8.938-34.378,8.938Z" transform="translate(-382.148 -2370.451)" fill="#539b95" stroke="#aaa07f" stroke-width="1"/>
      <path id="Path_9" data-name="Path 9" d="M433.393,2531.343s-13.063,39.877-15.814,58.442-5.5,23.377-5.5,46.065,3.438,83.881,5.5,96.945,235.142,0,235.142,0,5.5-43.315,5.5-54.316.688-65.317-5.5-84.568-20.627-62.567-20.627-62.567,1.375,24.064-6.875,38.5-9.626,21.314-31.627,35.065-50.878,15.813-68.067,15.126-53.629-12.376-61.879-20.627-19.251-11.688-26.814-38.5S433.393,2531.343,433.393,2531.343Z" transform="translate(-383.811 -2349.068)" fill="#539b95" stroke="#aaa07f" stroke-width="1"/>
      <g id="Group_2" data-name="Group 2" transform="translate(116.594 316.003)">
        <path id="Path_10" data-name="Path 10" d="M490.043,2649.383s7.511,1.252,15.022,10.64,13.144,17.526,15.335,24.1a38.518,38.518,0,0,1,2.5,9.7c.539,3.905,1.252,12.162,1.252,13.769v10.014" transform="translate(-490.043 -2649.383)" fill="none" stroke="#aaa07f" stroke-linecap="round" stroke-width="2"/>
        <path id="Path_11" data-name="Path 11" d="M556.583,2649.383s-8.986.131-16.6,4.485c-2.671,2.064-7.137,4.454-9.814,6.851a38.94,38.94,0,0,0-8.328,10.257,111.175,111.175,0,0,0-5.005,12.89" transform="translate(-486.482 -2649.383)" fill="none" stroke="#aaa07f" stroke-linecap="round" stroke-width="2"/>
      </g>
      <path id="Path_12" data-name="Path 12" d="M440.655,2454.316s4.815,18.572,3.439,32.323-13.751,60.5-13.751,60.5-2.75,13.063,4.813,31.627,27.523,34.446,34.1,38.828,40.683,15.96,55.079,15.647,39.119-2.19,56.331-10.014,25.036-15.335,33.8-25.662,15.648-27.226,16.586-40.057a70.963,70.963,0,0,0-1.565-21.906s-5.946-13.457-7.2-35.363-1.565-45.927-1.565-45.927-.313-1.955-22.219-4.145-27.853-5.007-68.849-5.32-39.119-2.816-57.9,0S440.655,2454.316,440.655,2454.316Z" transform="translate(-381.449 -2360.739)" fill="#f6e6b2" stroke="#aaa07f" stroke-width="1"/>
      <g id="Ellipse_16" data-name="Ellipse 16" transform="translate(144.867 192.082)" fill="#aaa07f" stroke="#aaa07f" stroke-width="1">
        <ellipse cx="5.665" cy="6.231" rx="5.665" ry="6.231" stroke="none"/>
        <ellipse cx="5.665" cy="6.231" rx="5.165" ry="5.731" fill="none"/>
      </g>
      <g id="Ellipse_17" data-name="Ellipse 17" transform="translate(93.886 244.196)" fill="#2953c5" stroke="#aaa07f" stroke-width="1">
        <ellipse cx="7.364" cy="7.364" rx="7.364" ry="7.364" stroke="none"/>
        <ellipse cx="7.364" cy="7.364" rx="6.864" ry="6.864" fill="none"/>
      </g>
      <g id="Ellipse_18" data-name="Ellipse 18" transform="translate(141.468 252.126)" fill="#2953c5" stroke="#aaa07f" stroke-width="1">
        <ellipse cx="7.364" cy="7.364" rx="7.364" ry="7.364" stroke="none"/>
        <ellipse cx="7.364" cy="7.364" rx="6.864" ry="6.864" fill="none"/>
      </g>
      <g id="Ellipse_19" data-name="Ellipse 19" transform="translate(190.183 244.196)" fill="#2953c5" stroke="#aaa07f" stroke-width="1">
        <ellipse cx="7.364" cy="7.364" rx="7.364" ry="7.364" stroke="none"/>
        <ellipse cx="7.364" cy="7.364" rx="6.864" ry="6.864" fill="none"/>
      </g>
    </g>
    <g id="Group_1" data-name="Group 1" transform="translate(5 454.505)">
      <path id="Path_7" data-name="Path 7" d="M448.769,2605.454s-2.571-2.583-8.364,0c-2.584,1.146-7.9,4.715-10.578,8.95-7.73,12.2-17.494,12.2-17.494,12.2s-7.73,1.627-18.714,9.764S368.8,2655.9,368.8,2655.9l10.171,17.087s13.658-4.245,17.732-5.912,23.765-13.209,26.206-16.464,8.95-8.95,12.2-10.578,14.646-1.627,17.9-3.662,6.916-6.1,6.916-8.136S448.769,2605.454,448.769,2605.454Z" transform="translate(-368.803 -2603.736)" fill="#fff"/>
      <path id="Path_8" data-name="Path 8" d="M429.719,2606.775c15.053,28.478,13.575,28.037,13.575,28.037l2.034,2.034s6.39-5.039,6.8-7.48c.114-.681-.508-2.483-1.852-5.741-3.027-7.34-9.827-18.919-9.827-18.919s-3.662-2.034-6.509,0S429.719,2606.775,429.719,2606.775Z" transform="translate(-360.707 -2603.803)" fill="#30d5c8"/>
    </g>
    <line id="Line_27" data-name="Line 27" x1="46.449" y2="24.924" transform="translate(88.668 439.523)" fill="none" stroke="#2953c5" stroke-width="2" stroke-dasharray="3"/>
  </g>
</svg>
