<svg xmlns="http://www.w3.org/2000/svg" xmlns:xlink="http://www.w3.org/1999/xlink" width="390" height="844" viewBox="0 0 390 844">
  <defs>
    <clipPath id="clip-iPhone_13_Pro_12_Pro_5">
      <rect width="390" height="844"/>
    </clipPath>
  </defs>
  <g id="iPhone_13_Pro_12_Pro_5" data-name="iPhone 13 Pro, 12 Pro – 5" clip-path="url(#clip-iPhone_13_Pro_12_Pro_5)">
    <g id="Group_6" data-name="Group 6" transform="translate(47.572 185.565)">
      <path id="Path_4" data-name="Path 4" d="M390.687,2371.119h50.821a50.379,50.379,0,0,0-11.835,27.847c-1.392,16.708,6.962,36.2,6.962,36.2l10.443,17.4s-2.785,25.759-5.569,38.29.7,29.24,0,40.378-17.4,75.884-19.493,82.149-22.974-55.695-25.063-61.96-8.189-39.327-8.189-41.416,3.316-22.634,1.924-26.81-2.785-64.745-3.481-84.238S390.687,2371.119,390.687,2371.119Z" transform="translate(-387.128 -2370.353)" fill="#f6e6b2" stroke="#aaa07f" stroke-width="1"/>
      <path id="Path_5" data-name="Path 5" d="M443.518,2371.119H392.7a50.379,50.379,0,0,1,11.835,27.847c1.392,16.708-6.962,36.2-6.962,36.2l-10.443,17.4s2.785,25.759,5.569,38.29-.7,29.24,0,40.378,17.4,75.884,19.493,82.149,22.974-55.695,25.063-61.96,8.189-39.327,8.189-41.416-3.316-22.634-1.924-26.81,2.785-64.745,3.481-84.238S443.518,2371.119,443.518,2371.119Z" transform="translate(-143.936 -2370.353)" fill="#f6e6b2" stroke="#aaa07f" stroke-width="1"/>
      <path id="Path_6" data-name="Path 6" d="M441.565,2451.279s-6.265-6.266-12.531-23.67-5.569-38.29,0-49.429,7.658-6.962,7.658-6.962H630.927s19.493,15.316,10.443,41.075-17.4,38.986-17.4,38.986V2465.2s-31.328-7.658-59.872-9.05-75.884-2.088-87.719,0-34.809,9.05-34.809,9.05Z" transform="translate(-381.615 -2370.451)" fill="#539b95" stroke="#aaa07f" stroke-width="1"/>
      <path id="Path_9" data-name="Path 9" d="M433.661,2531.344s-13.227,40.378-16.012,59.176-5.569,23.67-5.569,46.644,3.481,84.934,5.569,98.162,238.095,0,238.095,0,5.569-43.86,5.569-55,.7-66.138-5.569-85.631-20.886-63.353-20.886-63.353,1.392,24.366-6.962,38.986-9.747,21.582-32.025,35.506-51.518,16.012-68.922,15.316-54.3-12.531-62.657-20.885c-7.034-7.034-23.424-28.107-23.424-28.107s-2.517-6.589-3.727-10.879C429.484,2534.128,433.661,2531.344,433.661,2531.344Z" transform="translate(-383.456 -2346.779)" fill="#539b95" stroke="#aaa07f" stroke-width="1"/>
      <g id="Group_2" data-name="Group 2" transform="translate(118.058 319.972)">
        <path id="Path_10" data-name="Path 10" d="M490.043,2649.383s7.605,1.268,15.21,10.774,13.309,17.746,15.527,24.4c1.182,3.547,1.808,4.553,2.535,9.823.546,3.955,1.268,12.315,1.268,13.943v10.14" transform="translate(-490.043 -2649.383)" fill="none" stroke="#aaa07f" stroke-linecap="round" stroke-width="2"/>
        <path id="Path_11" data-name="Path 11" d="M557.082,2649.383s-9.1.132-16.8,4.541c-2.7,2.09-7.226,4.51-9.938,6.938a39.438,39.438,0,0,0-8.432,10.386,112.582,112.582,0,0,0-5.068,13.052" transform="translate(-486.101 -2649.383)" fill="none" stroke="#aaa07f" stroke-linecap="round" stroke-width="2"/>
      </g>
      <path id="Path_12" data-name="Path 12" d="M442.044,2454.451s.426,11.652,0,25.393c-.024.819-5.455,16.277-5.568,17.4-1.392,13.924-10.108,17.959-13.588,45.807s0,43.164,0,43.164a161.2,161.2,0,0,0,34.809,43.164c22.858,19.781,63.353,22.278,63.353,22.278s29.835,9.1,68.106-8.767,50.943-39.27,50.943-39.27,13.228-32.721,11.139-51.518-5.569-21.582-11.139-39.683-8.354-27.848-8.354-27.848l-7.375-30.124s-.317-1.979-22.5-4.2-28.2-5.07-69.714-5.387-39.61-2.852-58.623,0S442.044,2454.451,442.044,2454.451Z" transform="translate(-382.094 -2359.699)" fill="#f6e6b2" stroke="#aaa07f" stroke-width="1"/>
      <g id="Ellipse_16" data-name="Ellipse 16" transform="translate(146.686 194.495)" fill="#aaa07f" stroke="#aaa07f" stroke-width="1">
        <ellipse cx="5.736" cy="6.309" rx="5.736" ry="6.309" stroke="none"/>
        <ellipse cx="5.736" cy="6.309" rx="5.236" ry="5.809" fill="none"/>
      </g>
      <g id="Ellipse_17" data-name="Ellipse 17" transform="translate(122.597 214.57)" fill="#2953c5" stroke="#aaa07f" stroke-width="1">
        <ellipse cx="7.456" cy="7.456" rx="7.456" ry="7.456" stroke="none"/>
        <ellipse cx="7.456" cy="7.456" rx="6.956" ry="6.956" fill="none"/>
      </g>
      <g id="Ellipse_18" data-name="Ellipse 18" transform="translate(170.776 214.57)" fill="#2953c5" stroke="#aaa07f" stroke-width="1">
        <ellipse cx="7.456" cy="7.456" rx="7.456" ry="7.456" stroke="none"/>
        <ellipse cx="7.456" cy="7.456" rx="6.956" ry="6.956" fill="none"/>
      </g>
      <g id="Ellipse_19" data-name="Ellipse 19" transform="translate(197.16 172.423)" fill="#2953c5" stroke="#aaa07f" stroke-width="1">
        <ellipse cx="7.456" cy="7.456" rx="7.456" ry="7.456" stroke="none"/>
        <ellipse cx="7.456" cy="7.456" rx="6.956" ry="6.956" fill="none"/>
      </g>
      <g id="Ellipse_20" data-name="Ellipse 20" transform="translate(95.066 172.423)" fill="#2953c5" stroke="#aaa07f" stroke-width="1">
        <ellipse cx="7.456" cy="7.456" rx="7.456" ry="7.456" stroke="none"/>
        <ellipse cx="7.456" cy="7.456" rx="6.956" ry="6.956" fill="none"/>
      </g>
    </g>
    <g id="Group_7" data-name="Group 7" transform="translate(39.287 436.269)">
      <path id="Path_7" data-name="Path 7" d="M449.774,2605.469s-2.6-2.616-8.469,0c-2.616,1.16-7.995,4.774-10.711,9.063-7.827,12.358-17.714,12.358-17.714,12.358s-7.827,1.648-18.949,9.887-25.128,19.773-25.128,19.773l10.3,17.3s13.83-4.3,17.955-5.986,24.063-13.375,26.535-16.671,9.063-9.063,12.358-10.711,14.83-1.648,18.125-3.707,7-6.179,7-8.239S449.774,2605.469,449.774,2605.469Z" transform="translate(-368.803 -2603.729)" fill="#fff"/>
      <path id="Path_8" data-name="Path 8" d="M429.719,2606.812c15.242,28.836,13.746,28.39,13.746,28.39l2.06,2.06s6.471-5.1,6.883-7.574c.115-.689-.514-2.514-1.875-5.813-3.065-7.433-9.951-19.156-9.951-19.156s-3.708-2.06-6.591,0S429.719,2606.812,429.719,2606.812Z" transform="translate(-359.84 -2603.803)" fill="#30d5c8"/>
    </g>
    <path id="Path_14" data-name="Path 14" d="M3360.99,148.908c51.588-32.582,46.157-35.3,46.157-35.3" transform="translate(-3236.422 295.828)" fill="none" stroke="#2953c5" stroke-width="2" stroke-dasharray="3"/>
  </g>
</svg>
