<svg xmlns="http://www.w3.org/2000/svg" xmlns:xlink="http://www.w3.org/1999/xlink" width="390" height="844" viewBox="0 0 390 844">
  <defs>
    <clipPath id="clip-iPhone_13_Pro_12_Pro_6">
      <rect width="390" height="844"/>
    </clipPath>
  </defs>
  <g id="iPhone_13_Pro_12_Pro_6" data-name="iPhone 13 Pro, 12 Pro – 6" clip-path="url(#clip-iPhone_13_Pro_12_Pro_6)">
    <g id="Group_4" data-name="Group 4" transform="translate(43.219 183.565)">
      <path id="Path_4" data-name="Path 4" d="M390.7,2371.119h50.994a50.551,50.551,0,0,0-11.875,27.942c-1.4,16.765,6.985,36.324,6.985,36.324l10.478,17.464s-2.794,25.846-5.588,38.42.7,29.339,0,40.515-17.464,76.142-19.559,82.428-23.052-55.884-25.148-62.17-8.217-39.46-8.217-41.556,3.327-22.71,1.93-26.9-2.794-64.964-3.493-84.524S390.7,2371.119,390.7,2371.119Z" transform="translate(-387.128 -2370.35)" fill="#f6e6b2" stroke="#aaa07f" stroke-width="1"/>
      <path id="Path_5" data-name="Path 5" d="M443.71,2371.119H392.716a50.551,50.551,0,0,1,11.875,27.942c1.4,16.765-6.985,36.324-6.985,36.324l-10.478,17.464s2.794,25.846,5.588,38.42-.7,29.339,0,40.515,17.464,76.142,19.559,82.428,23.052-55.884,25.148-62.17,8.217-39.46,8.217-41.556-3.327-22.71-1.93-26.9,2.794-64.964,3.493-84.524S443.71,2371.119,443.71,2371.119Z" transform="translate(-143.111 -2370.35)" fill="#f6e6b2" stroke="#aaa07f" stroke-width="1"/>
      <path id="Path_6" data-name="Path 6" d="M441.623,2451.553s-6.287-6.287-12.574-23.75-5.588-38.42,0-49.6,7.684-6.986,7.684-6.986H631.627s19.559,15.368,10.478,41.215-17.464,39.118-17.464,39.118v13.971s-31.435-7.684-60.075-9.081-76.141-2.1-88.017,0-34.927,9.081-34.927,9.081Z" transform="translate(-381.469 -2370.451)" fill="#539b95" stroke="#aaa07f" stroke-width="1"/>
      <path id="Path_9" data-name="Path 9" d="M433.734,2531.344s-13.272,40.516-16.067,59.376-5.588,23.751-5.588,46.8,3.493,85.223,5.588,98.5,238.9,0,238.9,0,5.588-44.008,5.588-55.185.7-66.362-5.588-85.921-20.957-63.568-20.957-63.568,1.4,24.449-6.985,39.119-9.78,21.655-32.133,35.626-51.692,16.066-69.156,15.368-54.487-12.574-62.869-20.957-19.559-11.875-27.243-39.119S433.734,2531.344,433.734,2531.344Z" transform="translate(-383.359 -2346.152)" fill="#539b95" stroke="#aaa07f" stroke-width="1"/>
      <g id="Group_2" data-name="Group 2" transform="translate(118.459 321.058)">
        <path id="Path_10" data-name="Path 10" d="M490.043,2649.383s7.631,1.272,15.262,10.811,13.354,17.806,15.58,24.483c1.186,3.559,1.815,4.569,2.544,9.857.548,3.968,1.272,12.356,1.272,13.99V2718.7" transform="translate(-490.043 -2649.383)" fill="none" stroke="#aaa07f" stroke-linecap="round" stroke-width="2"/>
        <path id="Path_11" data-name="Path 11" d="M557.218,2649.383s-9.13.133-16.861,4.557c-2.714,2.1-7.251,4.526-9.971,6.961a39.563,39.563,0,0,0-8.461,10.421,112.97,112.97,0,0,0-5.085,13.1" transform="translate(-485.996 -2649.383)" fill="none" stroke="#aaa07f" stroke-linecap="round" stroke-width="2"/>
      </g>
      <path id="Path_12" data-name="Path 12" d="M440.786,2454.488s.427,11.692,0,25.479c-.024.822-5.474,16.332-5.587,17.464-1.4,13.971-6.028,25.148-4.89,51.37s-2.794,13.272,4.89,32.133,27.964,35,34.641,39.449,41.334,16.215,55.96,15.9,39.744-2.225,57.232-10.174,25.436-15.58,34.339-26.073,15.9-27.662,16.852-40.7,0-31.169,0-31.169-1.076,4.192-3.172-20.956-7.321-52.722-7.321-52.722-.318-1.986-22.575-4.211-28.3-5.087-69.95-5.405-39.744-2.861-58.822,0S440.786,2454.488,440.786,2454.488Z" transform="translate(-380.633 -2359.415)" fill="#f6e6b2" stroke="#aaa07f" stroke-width="1"/>
      <g id="Ellipse_16" data-name="Ellipse 16" transform="translate(147.184 195.155)" fill="#aaa07f" stroke="#aaa07f" stroke-width="1">
        <ellipse cx="5.755" cy="6.331" rx="5.755" ry="6.331" stroke="none"/>
        <ellipse cx="5.755" cy="6.331" rx="5.255" ry="5.831" fill="none"/>
      </g>
      <g id="Ellipse_17" data-name="Ellipse 17" transform="translate(121.862 233.139)" fill="#2953c5" stroke="#aaa07f" stroke-width="1">
        <ellipse cx="7.482" cy="7.482" rx="7.482" ry="7.482" stroke="none"/>
        <ellipse cx="7.482" cy="7.482" rx="6.982" ry="6.982" fill="none"/>
      </g>
      <g id="Ellipse_18" data-name="Ellipse 18" transform="translate(170.205 233.139)" fill="#2953c5" stroke="#aaa07f" stroke-width="1">
        <ellipse cx="7.482" cy="7.482" rx="7.482" ry="7.482" stroke="none"/>
        <ellipse cx="7.482" cy="7.482" rx="6.982" ry="6.982" fill="none"/>
      </g>
      <g id="Ellipse_19" data-name="Ellipse 19" transform="translate(198.98 200.334)" fill="#2953c5" stroke="#aaa07f" stroke-width="1">
        <ellipse cx="7.482" cy="7.482" rx="7.482" ry="7.482" stroke="none"/>
        <ellipse cx="7.482" cy="7.482" rx="6.982" ry="6.982" fill="none"/>
      </g>
      <g id="Ellipse_20" data-name="Ellipse 20" transform="translate(96.539 200.334)" fill="#2953c5" stroke="#aaa07f" stroke-width="1">
        <ellipse cx="7.482" cy="7.482" rx="7.482" ry="7.482" stroke="none"/>
        <ellipse cx="7.482" cy="7.482" rx="6.982" ry="6.982" fill="none"/>
      </g>
    </g>
    <g id="Group_5" data-name="Group 5" transform="translate(28 449.766)">
      <path id="Path_7" data-name="Path 7" d="M450.048,2605.473s-2.612-2.625-8.5,0c-2.625,1.164-8.022,4.79-10.747,9.093-7.854,12.4-17.774,12.4-17.774,12.4s-7.853,1.653-19.014,9.92-25.214,19.84-25.214,19.84l10.333,17.361s13.877-4.313,18.016-6.006,24.145-13.42,26.625-16.727,9.094-9.094,12.4-10.747,14.88-1.653,18.187-3.72,7.027-6.2,7.027-8.267S450.048,2605.473,450.048,2605.473Z" transform="translate(-368.803 -2603.728)" fill="#fff"/>
      <path id="Path_8" data-name="Path 8" d="M429.719,2606.823c15.294,28.934,13.792,28.486,13.792,28.486l2.067,2.067s6.492-5.12,6.906-7.6c.115-.692-.516-2.523-1.881-5.833-3.076-7.458-9.985-19.221-9.985-19.221s-3.72-2.067-6.613,0S429.719,2606.823,429.719,2606.823Z" transform="translate(-359.603 -2603.803)" fill="#30d5c8"/>
    </g>
    <path id="Path_13" data-name="Path 13" d="M2828.835,133.335c-52.671,29.06-39.5,24.519-52.671,32.692-4.016,2.493,1.182-.144,0,0a19.071,19.071,0,0,1-4.54,0" transform="translate(-2659.626 292.962)" fill="none" stroke="#2953c5" stroke-width="2" stroke-dasharray="3"/>
  </g>
</svg>
