<svg xmlns="http://www.w3.org/2000/svg" xmlns:xlink="http://www.w3.org/1999/xlink" width="390" height="844" viewBox="0 0 390 844">
  <defs>
    <clipPath id="clip-iPhone_13_Pro_12_Pro_11">
      <rect width="390" height="844"/>
    </clipPath>
  </defs>
  <g id="iPhone_13_Pro_12_Pro_11" data-name="iPhone 13 Pro, 12 Pro – 11" clip-path="url(#clip-iPhone_13_Pro_12_Pro_11)">
    <g id="Group_21" data-name="Group 21" transform="translate(31.478 227.873)">
      <path id="Path_43" data-name="Path 43" d="M3138.039,4125.547l101.931-35.8s-8.18-3.07-12-6.562-6.652-6.984-7.65-9.312-2-3.991-1.5-7.15a11.559,11.559,0,0,1,3.492-6.652c1.5-1.5,3.658-4.157,8.979-4.157s7.982,2,9.812,2.827,6.818,4.324,7.982,4.823a11.021,11.021,0,0,0,2.66.666,23.362,23.362,0,0,0-2.66-6.652c-1.829-2.827-6.818-7.15-9.811-8.148s-6.486-2.993-11.308-2.162a86.031,86.031,0,0,0-11.973,3.492l-89.632,30.93a25.218,25.218,0,0,0-14.634,9.313c-6.153,7.982-3.492,19.124-2.993,21.451s3.991,8.647,7.151,11.308,8.481,3.825,13.137,4.157A17.2,17.2,0,0,0,3138.039,4125.547Z" transform="translate(-3031.395 -3954.08)" fill="#30d5c8"/>
      <ellipse id="Ellipse_24" data-name="Ellipse 24" cx="18.46" cy="17.917" rx="18.46" ry="17.917" transform="translate(80.351 133.251)" fill="#30d5c8"/>
      <rect id="Rectangle_178" data-name="Rectangle 178" width="37.046" height="14.723" rx="7.362" transform="translate(130.691 131.225) rotate(-17)" fill="#229591"/>
      <path id="Path_44" data-name="Path 44" d="M18.048,0c4.725,0,8.264,2.547,10.773,4.3.154.107,1.876,1.437,2.12,1.661,1.96,1.77,2.759,4.336,2.58,3.569-.152-.641-1.505-.782-1.625-1.131-.165-.46-1.6-.687-1.917-1.131-.364-.518-1.306-.911-2.772-1.577-.239-.107-1.554-.569-1.712-.707a8.781,8.781,0,0,0-3.642-1.06,25.827,25.827,0,0,0-2.582-.19c-.617-.306-3.213.2-4.213.544a9.873,9.873,0,0,0-1.386.6c-1.375.377-3.452,2.745-3.452,2.745A12.586,12.586,0,0,0,8.533,9.438a16.539,16.539,0,0,0-1.277,2.283c-1.1,2.134-.9,5.544-.353,7.339a35.8,35.8,0,0,0,1.685,3.7,47.892,47.892,0,0,0,5.032,6.154c1.461,1.341,3,2.224,3.431,2.826a7.782,7.782,0,0,0,3.734,2.422c1.716.908,1.75.3,1.716.807S19.513,36.1,18.048,36.1a18.048,18.048,0,0,1,0-36.1Z" transform="translate(180.954 98.178)" fill="#30d5c8" opacity="0.56"/>
      <path id="Path_45" data-name="Path 45" d="M3366.175,4034.722s-4.514-.853-5.708-1.877a39.958,39.958,0,0,0-8.357-4.946c-2.729-1.024-8.187-1.705-10.233-.853s-6.14,3.752-6.823,5.117-2.729,4.776-1.364,9.039,3.07,6.823,5.116,8.7,4.264,4.946,5.97,5.628,7.5,3.582,10.233,4.435,5.8,2.218,6.652,3.411,9.04,20.638,11.768,24.219,7.675,11.427,11.939,15.52,12.451,11.427,17.056,15.521,22.513,20.126,25.242,22.855a109.414,109.414,0,0,0,11.6,9.209c2.729,1.877,10.063,1.536,12.792-1.022s16.374-15.521,17.567-17.4,3.07-3.411,3.24-9.039-3.411-9.381-5.117-11.768-20.808-17.909-22.343-20.979-8.7-23.2-11.6-31.553-18.42-43.492-18.761-45.538a11.068,11.068,0,0,0-4.775-7.5c-3.241-2.047-16.032-5.97-19.444-7.334s-12.962-3.752-16.715-4.6-8.016-3.24-10.574-2.9-6.311,3.752-15.691,8.869-7.675,3.411-10.233,5.97-6.481,8.869-7.5,10.574-4.434,6.482-4.434,6.482,12.792-4.6,14.839-4.947,7.5-1.193,12.45,1.365a30.7,30.7,0,0,1,9.551,7.675C3363.878,4028.752,3366.175,4034.722,3366.175,4034.722Z" transform="translate(-3145.825 -3924.657)" fill="#fbfed2" stroke="#aaa07f" stroke-width="1"/>
      <path id="Path_46" data-name="Path 46" d="M3443.777,4103.795s-5.034-.341-8.1-3.411-7.675-6.823-9.722-8.528-3.752-4.093-6.993-5.117-8.52-3.138-8.52-3.138" transform="translate(-3190.331 -3973.264)" fill="none" stroke="#aaa07f" stroke-linecap="round" stroke-width="1"/>
      <path id="Path_47" data-name="Path 47" d="M3460.338,4097.245s3.582-1.193,4.434-3.411,1.876-5.458,1.876-7.164v-5.8" transform="translate(-3216.531 -3971.831)" fill="none" stroke="#aaa07f" stroke-linecap="round" stroke-width="1"/>
      <path id="Path_48" data-name="Path 48" d="M3451.288,4058s-3.752,3.529-3.752,4.894.341,4.946,0,5.969-3.241,2.047-3.582,3.752-.854,5.458-.854,5.458" transform="translate(-3207.479 -3959.822)" fill="none" stroke="#aaa07f" stroke-linecap="round" stroke-width="1"/>
      <path id="Path_49" data-name="Path 49" d="M3388.876,4046.64s6.652-3.753,7.675-4.435a21.616,21.616,0,0,1,2.047-1.193s3.071,2.558,4.946,3.922a30.509,30.509,0,0,0,8.528,3.923c3.07.853,9.21,1.706,9.21,1.706" transform="translate(-3179.009 -3950.902)" fill="none" stroke="#aaa07f" stroke-linecap="round" stroke-width="1"/>
      <path id="Path_50" data-name="Path 50" d="M3402.881,4063.545l1.535-1.706s4.434,3.752,7.5,4.776,8.358,3.07,10.4,3.411a14.154,14.154,0,0,0,4.093,0" transform="translate(-3186.363 -3961.838)" fill="none" stroke="#aaa07f" stroke-linecap="round" stroke-width="1"/>
      <path id="Path_51" data-name="Path 51" d="M3428,4087.021a14.6,14.6,0,0,1-5.852,0c-2.9-.682-9.21-2.559-9.21-2.559" transform="translate(-3191.642 -3973.716)" fill="none" stroke="#aaa07f" stroke-linecap="round" stroke-width="1"/>
      <path id="Path_52" data-name="Path 52" d="M3367.774,4138.571s-.84,1.706-1.1,6.56-1.706,8.528-3.936,10.759-5.641,4.461-8,3.673-4.985-1.837-5.248-4.2a13.242,13.242,0,0,1,0-3.673,4.741,4.741,0,0,1-3.936,0c-2.362-.918-5.117-2.362-5.51-4.33a7.379,7.379,0,0,1,0-3.28l21.779-7.74a22.62,22.62,0,0,1,3.411,1.049C3366.8,4138.047,3367.774,4138.571,3367.774,4138.571Z" transform="translate(-3153.275 -4000.955)" fill="#fbfed2" stroke="#aaa07f" stroke-width="1"/>
      <path id="Path_53" data-name="Path 53" d="M3359.568,4151.56s1.574.787,4.461-2.1a20.413,20.413,0,0,0,5.248-8,22.714,22.714,0,0,1,2.755-5.116" transform="translate(-3163.621 -4000.955)" fill="none" stroke="#aaa07f" stroke-width="1"/>
      <path id="Path_54" data-name="Path 54" d="M3076.352,3964.078a62.643,62.643,0,0,0,3.241-13.815,151.574,151.574,0,0,0,0-30.53c-1.023-10.745-2.047-23.025-2.047-28.653s.341-9.21-.853-17.4-1.194-11.427-3.07-15.009-6.652-6.652-9.551-6.652-6.311.341-8.187,1.194-4.605,3.07-5.458,5.458-1.194,7.845-1.535,10.574,0,11.427,0,13.815,2.047,13.644,1.535,14.5-.171,2.729-1.535,2.047-2.047-1.706-2.047-4.093.853-10.4.853-15.35.171-12.962,0-17.4.171-6.14-.853-8.187-4.6-3.24-6.31-3.24-3.752-.341-5.629.682-3.753,2.047-4.434,4.605.17,5.969,0,10.063.17,11.6,0,18.932.511,10.916,0,11.939-2.388,2.558-2.388-1.023v-15.179c0-7.334.682-7.675,0-14.668s.171-8.869-3.411-10.063-4.775-.682-6.822,0-4.265,2.047-4.776,3.752-1.194,4.264-.853,11.257,1.023,10.745.853,19.444.853,12.109-.853,9.721-1.194-5.969-1.024-12.11.512-11.427,0-14.327-.341-3.752-3.07-6.481-10.574-1.194-11.257,3.752-.341,8.869,0,18.761,1.023,13.3,0,12.622-1.194-4.094-1.364-8.528,0-8.016-.853-10.234a6.159,6.159,0,0,0-6.31-4.093c-3.412.171-5.117,4.435-5.287,6.481s-.683,11.6-1.194,15.009-1.365,9.551-1.194,12.621.682,1.706,0,5.458a67.932,67.932,0,0,0-1.535,13.986v22.854s6.481-10.063,13.645-13.474,12.45-4.6,16.714-4.6,8.187-.341,15.179,1.194,20.3,7.164,25.754,10.575a28.924,28.924,0,0,0,10.745,4.264,30.711,30.711,0,0,1,9.722,4.946A55.791,55.791,0,0,1,3076.352,3964.078Z" transform="translate(-2963.874 -3851.286)" fill="#fbfed2" stroke="#aaa07f" stroke-width="1"/>
      <path id="Path_55" data-name="Path 55" d="M2948.752,4231.011H3109.3s-5.476-26.519-11.241-49.578l-17.871-71.483s-12.948,4.279-21.374,7.382-6.43,3.105-11.53,3.771-12.638-.888-15.742-3.771-6.874-8.646-7.76-12.415-1.552-11.753,1.33-17.073a24.308,24.308,0,0,1,10.2-10.421c3.769-2,28.159-9.534,28.159-9.534s-2-5.987-3.769-7.539-5.765-5.322-9.534-7.317a27.513,27.513,0,0,0-8.2-2.882,35.166,35.166,0,0,1-7.76-3.326c-2.217-1.33-11.973-5.986-17.294-8.2s-12.638-3.548-20.842-3.77a46.4,46.4,0,0,0-18.625,3.77,23.843,23.843,0,0,0-8.426,5.764,92.138,92.138,0,0,0-9.534,12.86c-3.1,5.1-6.651,11.53-8.425,16.407s-2.217,11.308-3.1,26.164-.666,48.557-.887,58.313.222,38.8,0,54.322S2948.752,4231.011,2948.752,4231.011Z" transform="translate(-2947.003 -3947.661)" fill="#fbfed2" stroke="#aaa07f" stroke-width="1"/>
    </g>
  </g>
</svg>
