<svg xmlns="http://www.w3.org/2000/svg" xmlns:xlink="http://www.w3.org/1999/xlink" width="390" height="844" viewBox="0 0 390 844">
  <defs>
    <clipPath id="clip-iPhone_13_Pro_12_Pro_10">
      <rect width="390" height="844"/>
    </clipPath>
  </defs>
  <g id="iPhone_13_Pro_12_Pro_10" data-name="iPhone 13 Pro, 12 Pro – 10" clip-path="url(#clip-iPhone_13_Pro_12_Pro_10)">
    <g id="Group_23" data-name="Group 23" transform="translate(36.934 178.026)">
      <path id="Path_57" data-name="Path 57" d="M4455.024,3981.474s.921-19.108,0-21.871-.69-4.374-3.684-6.906-2.3-3.223-3.914-7.137-.921-7.828-5.064-9.669-7.368-2.993-12.2-1.843-4.6,3.914-11.511,3.914-6.906-.461-15.425-2.072-8.287-2.072-12.892,0a18.066,18.066,0,0,0-9.669,9.669c-1.841,4.374-2.532,1.842-3.223,10.59s-.921,23.482-.921,23.482-4.375-11.741-6.446-15.2a15.867,15.867,0,0,0-4.144-4.834s.921-1.15,0-4.374-3.454-9.669-3.454-9.669.921-4.144,0-11.511-2.762-11.05,1.842-17.266,8.057-11.741,12.2-12.432,3.914,2.993,5.525,0,1.151-6.446,8.288-11.051,16.116-4.144,20.029-3.913,14.5.461,18.417,1.382,6.677-.231,11.051,1.381,8.748,7.137,11.51,8.057,7.828,3.453,8.058,5.986,1.382,1.611,4.144,4.374.46,2.993,2.3,6.216,4.834,5.756,4.144,10.59-5.064,12.2-6.446,21.411S4455.024,3981.474,4455.024,3981.474Z" transform="translate(-4255.31 -3889.253)" fill="#229591" stroke="#229591" stroke-width="1"/>
      <path id="Path_58" data-name="Path 58" d="M4506.762,4037.031a8.193,8.193,0,0,0,6.677-4.6c2.533-4.6,4.143-8.058,4.143-13.583s.921-7.367,0-9.209-2.3-4.145-4.143-3.223-6.677,17.957-6.677,17.957v12.662Z" transform="translate(-4307.508 -3931.228)" fill="#fbfed2" stroke="#aaa07f" stroke-width="1"/>
      <path id="Path_59" data-name="Path 59" d="M4370.705,4007.924a2.8,2.8,0,0,0-3.684,0c-1.842,1.612-3.684,2.762-3.223,8.979s4.835,13.122,6.907,16.576,7.6,4.6,8.749,3.914-2.3-12.893-2.3-12.893.23-1.15-1.612-5.985S4370.705,4007.924,4370.705,4007.924Z" transform="translate(-4256.172 -3931.588)" fill="#fbfed2" stroke="#aaa07f" stroke-width="1"/>
      <path id="Path_60" data-name="Path 60" d="M4387.362,4020.189l-2.251-15.408s.545-14.168,1.227-21.251,1.5-9.672,2.179-11.443,4.5-7.629,8.037-9.809,6.676-2.86,8.447-2.315a135.225,135.225,0,0,0,15.256,3.133,38.312,38.312,0,0,0,9.672,0c3.269-.545,5.449-2.588,8.173-3.133s6.129-1.226,10.081,0a8.341,8.341,0,0,1,5.584,4.767c.546,1.09,2.452,8.991,3.68,11.171s4.495,3.678,4.767,5.04,1.908,1.363,1.361,9.4-.544,15.121-.544,15.121v14.727a30.555,30.555,0,0,1-2.86,11.292c-2.861,6.4-8.446,16.21-14.85,20.025s-15.121,4.768-20.978,4.632a40.973,40.973,0,0,1-17.3-4.632c-5.313-2.724-13.215-12.4-15.394-17.3S4387.362,4020.189,4387.362,4020.189Z" transform="translate(-4263.847 -3914.385)" fill="#fbfed2" stroke="#aaa07f" stroke-width="1"/>
      <path id="Path_63" data-name="Path 63" d="M4445.386,4291.178h39.685s1.556-25.678,0-43.187-3.5-12.84-5.058-37.351-.389-36.183-3.89-49.8-14.4-21.011-21.4-24.123-17.119-3.891-33.071-9.727-29.959-14.785-31.9-18.286-2.138-6.75-1.677-16.189,1.677-13.352,1.677-13.352a58.483,58.483,0,0,1-5.917,9.291c-3,3.542-4.5,4.633-7.22,6.131a36.841,36.841,0,0,1-12.806,3.815c-5.994.816-8.446.271-14.3-.818a33.578,33.578,0,0,1-12.4-4.768c-3.133-1.907-9.127-9.127-10.762-11.443a22.967,22.967,0,0,1-2.315-3.95,69.766,69.766,0,0,1,2.315,12.124c.409,5.585,1.226,14.985,0,18.254s-14.3,11.988-23.022,15.394-21.931,8.854-30.377,10.625-15.121,2.315-24.385,8.854-14.167,16.483-16.075,25.065-.407,10.9-1.77,14.167-11.851,25.337-15.938,38.551-10.9,29.833-13.623,42.366-5.448,25.065-5.176,27.518.272.136,4.359-3,5.313-4.768,13.623-6.538,26.018-.954,31.331,0,4.682.842,4.682.842,2.789-9.115,6.943-15.129,14.323-20.9,15.191-23.685,1.674,4.712,2.108,11.47,2.122,19,2.018,25.7a58.518,58.518,0,0,1-.419,8.174s11,1.887,12.888,1.991,149.783,1.009,149.783,1.009-.69-12.419,0-19.326,1.841-16.115,1.841-16.115,1.842,16.345,3.224,26.705S4445.386,4291.178,4445.386,4291.178Z" transform="translate(-4195.958 -3956.787)" fill="#fbfed2" stroke="#aaa07f" stroke-width="1"/>
      <path id="Path_64" data-name="Path 64" d="M4395.294,4080.792s1.593,3.188,1.416,15.407,0,16.115-1.416,19.834a16.612,16.612,0,0,1-3.188,5.49" transform="translate(-4266.357 -3957.998)" fill="none" stroke="#aaa07f" stroke-linecap="round" stroke-width="1"/>
      <path id="Path_65" data-name="Path 65" d="M4496.1,4082.725s-1.417,15.938-1.24,22.137.708,8.854,1.947,12.219a7.85,7.85,0,0,0,3.542,4.427" transform="translate(-4303.229 -3958.692)" fill="none" stroke="#aaa07f" stroke-linecap="round" stroke-width="1"/>
      <path id="Path_66" data-name="Path 66" d="M4407.553,4182.248s-.708-3.01-12.219-5.135-18.772-1.063-25.325-1.417-13.812-.708-13.812-.708" transform="translate(-4253.47 -3991.805)" fill="none" stroke="#aaa07f" stroke-linecap="round" stroke-width="1"/>
      <path id="Path_67" data-name="Path 67" d="M4457.85,4182.6s7.438-2.655,11.865-4.6,4.959-1.771,10.094-1.947,26.564,0,26.564,0" transform="translate(-4289.953 -3992.158)" fill="none" stroke="#aaa07f" stroke-linecap="round" stroke-width="1"/>
      <path id="Path_68" data-name="Path 68" d="M4311.688,4247.357s-1.24,10.98,0,17.355,6.2,11.688,6.021,14.876a115.858,115.858,0,0,1-2.479,17,60.185,60.185,0,0,1-2.834,8.146" transform="translate(-4237.298 -4017.779)" fill="none" stroke="#aaa07f" stroke-linecap="round" stroke-width="1"/>
      <path id="Path_69" data-name="Path 69" d="M4327.465,4297.632s5.667,12.4,8.678,15.407a44.044,44.044,0,0,0,14.875,9.563c6.021,2.125,25.678,2.834,25.678,2.834" transform="translate(-4243.158 -4035.823)" fill="none" stroke="#aaa07f" stroke-linecap="round" stroke-width="1"/>
      <path id="Path_70" data-name="Path 70" d="M4431.4,4313.649s-1.593,3.365-6.729,7.792a57.692,57.692,0,0,1-9.917,6.907" transform="translate(-4274.485 -4041.572)" fill="none" stroke="#aaa07f" stroke-width="1"/>
      <path id="Path_71" data-name="Path 71" d="M4455.632,4313.649s.708,4.073,5.313,8.324,11.511,6.729,11.511,6.729" transform="translate(-4289.157 -4041.572)" fill="none" stroke="#aaa07f" stroke-linecap="round" stroke-width="1"/>
      <path id="Path_72" data-name="Path 72" d="M4540.64,4297.632a50.93,50.93,0,0,1-7.792,13.633c-5.667,7.261-7.792,8.324-15.761,10.626a76.355,76.355,0,0,1-17.886,3.01c-3.72.177-6.553,0-6.553,0" transform="translate(-4302.442 -4035.823)" fill="none" stroke="#aaa07f" stroke-linecap="round" stroke-width="1"/>
      <path id="Path_73" data-name="Path 73" d="M4577.776,4248.182s1.417,8.855.708,14.167-3.719,12.75-5.136,15.583-3.01,4.6-3.364,9.387,5.489,37.189,5.489,37.189" transform="translate(-4330.193 -4018.075)" fill="none" stroke="#aaa07f" stroke-linecap="round" stroke-width="1"/>
      <g id="Group_22" data-name="Group 22" transform="translate(0.337 286.291)">
        <path id="Path_56" data-name="Path 56" d="M4408.375,4354.76H4424.2s9.536-4.4,16.451-7.125,10.584-3.563,12.261-3.458a4.265,4.265,0,0,1,3.668,2.516c.419,1.258.628,2.724,0,3.563s3.771-1.363,4.61,0,1.781-1.676,1.991-3.562-.105-5.869-3.459-7.755a10.328,10.328,0,0,0-2.733-1.127c-1.568-.4-3.129-.057-6.8-.13-5.238-.1-37.2-.524-37.2-.524s-5.24-.734-8.175,1.887-2.724,2.934-3.143,5.134,0,1.887,0,1.887a42.963,42.963,0,0,1,6.077-3.982c1.991-.838,2.829-1.782,4.4-1.363a3.581,3.581,0,0,1,2.725,2.725,8.93,8.93,0,0,1-.524,5.973C4412.986,4352.246,4408.375,4354.76,4408.375,4354.76Z" transform="translate(-4269.734 -4337.062)" fill="#30d5c8" stroke="#30d5c8" stroke-width="1"/>
        <path id="Path_61" data-name="Path 61" d="M4367.819,4386.715s2.993-.92,8.517-3.222,11.512-4.375,13.123-5.525a3.762,3.762,0,0,0,1.151-5.295,4.885,4.885,0,0,0-5.064-2.072,56.183,56.183,0,0,0-9.21,2.994c-4.144,1.842-8.287,3.222-14.964,6.446s-8.518,2.532-8.518,2.532,11.741-6.677,16.806-9.9,8.979-6.446,13.353-9.208,5.983-3.673,5.773-7.236-1.886-3.562-2.3-3.772a26.4,26.4,0,0,0-4.087,0,9.03,9.03,0,0,0,.619-2.411c.219-1.571-1.143-2.724-2.82-3.248s-4.506-.1-6.915.629-11,4.086-14.461,5.763-9.535,4.505-12.155,5.239a41.971,41.971,0,0,1-9.85,2.1c-4.925.419-8.069.524-8.069.524s4.611-4.086,7.125-5.868,2.83-1.572,4.087-3.354a9.513,9.513,0,0,0,1.258-5.973,4.341,4.341,0,0,0-3.458-2.934,12.189,12.189,0,0,0-5.764,2.41c-1.572,1.257-9.116,7.44-13.622,9.327s-9.012,3.772-14.146,8.8-9.955,13.518-11.213,16.452-.733,4.192-2.934,5.239-8.906.943-16.137-.734-12.995-4.505-25.988-6.81-18.338-3.144-29.131-2.515-14.041,4.4-16.242,5.868-6.6,6.183-6.6,6.183Z" transform="translate(-4195.977 -4339.164)" fill="#fbfed2" stroke="#aaa07f" stroke-width="1"/>
        <path id="Path_62" data-name="Path 62" d="M4467.21,4357.795s-1.571,1.571-13.308,6.811-9.326,4.505-14.042,6.706a42.8,42.8,0,0,0-7.858,4.716" transform="translate(-4280.688 -4344.503)" fill="none" stroke="#aaa07f" stroke-linecap="round" stroke-width="1"/>
      </g>
    </g>
  </g>
</svg>
