<svg xmlns="http://www.w3.org/2000/svg" xmlns:xlink="http://www.w3.org/1999/xlink" width="390" height="844" viewBox="0 0 390 844">
  <defs>
    <clipPath id="clip-iPhone_13_Pro_12_Pro_7">
      <rect width="390" height="844"/>
    </clipPath>
  </defs>
  <g id="iPhone_13_Pro_12_Pro_7" data-name="iPhone 13 Pro, 12 Pro – 7" clip-path="url(#clip-iPhone_13_Pro_12_Pro_7)">
    <g id="Group_20" data-name="Group 20" transform="translate(21.532 285.835)">
      <g id="Group_19" data-name="Group 19" transform="translate(0)">
        <path id="Path_31" data-name="Path 31" d="M1901.633,3998.215s6.192.739,11.289-1.659a23.945,23.945,0,0,0,5.056-3.371,38.073,38.073,0,0,0,5.242-5.464,9.978,9.978,0,0,0,.829-1.208,10.819,10.819,0,0,0,.582-1.312,37.845,37.845,0,0,0,2.04-8.515,18.091,18.091,0,0,0,0-3.46,26.464,26.464,0,0,0-.976-5.411,24.782,24.782,0,0,0-4.274-8.578,27.549,27.549,0,0,0-6.016-4.995,19.262,19.262,0,0,0-7.177-3.25,26.969,26.969,0,0,0-6.484-.387c-4.189.194-6.706,1.326-9.757,2.484a21.037,21.037,0,0,0-5.943,4.081,19.876,19.876,0,0,0-4.258,6.032c-1.8,3.748-2.64,11.476-2.64,11.476a25.255,25.255,0,0,0,4.347-4.8c1.949-2.849,3.6-5.547,7.945-8.4a14.885,14.885,0,0,1,10.943-2.249c2.249.45,5.247,1.2,7.5,3.6s2.848,3.148,3.6,5.4,1.649,5.7,1.049,8.844a35.41,35.41,0,0,1-3.9,10.644C1908.678,3991.019,1901.633,3998.215,1901.633,3998.215Z" transform="translate(-1791.147 -3927.602)" fill="#30d5c8" stroke="#30d5c8" stroke-width="1"/>
        <path id="Path_32" data-name="Path 32" d="M1904.268,3998.215s-6.192.739-11.289-1.659a23.949,23.949,0,0,1-5.056-3.371,38.062,38.062,0,0,1-5.242-5.464,10.007,10.007,0,0,1-.829-1.208,10.868,10.868,0,0,1-.582-1.312,37.858,37.858,0,0,1-2.04-8.515,18.081,18.081,0,0,1,0-3.46,26.463,26.463,0,0,1,.976-5.411,24.79,24.79,0,0,1,4.274-8.578,27.561,27.561,0,0,1,6.016-4.995,19.263,19.263,0,0,1,7.177-3.25,26.97,26.97,0,0,1,6.484-.387c4.189.194,6.705,1.326,9.757,2.484a21.04,21.04,0,0,1,5.943,4.081,19.88,19.88,0,0,1,4.258,6.032c1.8,3.748,2.64,11.476,2.64,11.476a25.265,25.265,0,0,1-4.348-4.8c-1.949-2.849-3.6-5.547-7.945-8.4a14.884,14.884,0,0,0-10.943-2.249c-2.249.45-5.247,1.2-7.5,3.6s-2.848,3.148-3.6,5.4-1.649,5.7-1.049,8.844a35.4,35.4,0,0,0,3.9,10.644C1897.222,3991.019,1904.268,3998.215,1904.268,3998.215Z" transform="translate(-1667.837 -3927.602)" fill="#30d5c8" stroke="#30d5c8" stroke-width="1"/>
        <path id="Path_33" data-name="Path 33" d="M1894.728,3997.667H2025.9l-2.249-2.1a31.1,31.1,0,0,1-7.5-.75c-3.748-.9-4.8-.9-9.894-4.947a20.612,20.612,0,0,1-7.362-12.229c-.709-3.192-.887-7.982,0-10.91s.887-5.233,3.9-9.669,9.225-7.894,13.128-8.87a25.664,25.664,0,0,1,13.483,0c4.967,1.419,6.83,3.459,8.6,4.79a23.249,23.249,0,0,1,5.145,6.653c.355,1.153,2.129,5.145,2.4,7.1s.532,4.967.532,4.967l2.661,2.484a12.772,12.772,0,0,0,.443-5.5,25.646,25.646,0,0,0-3.1-9.935c-1.952-3.814-6.83-8.25-9.048-9.757a32.15,32.15,0,0,0-6.653-3.459c-1.064-.266-35.216,0-35.216,0H1891.729a30.219,30.219,0,0,0-8.589,4.346c-3.814,2.927-5.766,5.056-7.717,9.225a32.429,32.429,0,0,0-2.927,9.846c-.266,2.218-.443,5.5-.443,5.5l3.371-2.662a22.325,22.325,0,0,1,.532-6.475,35.988,35.988,0,0,1,3.016-7.54c1.065-1.862,4.613-5.588,6.564-6.564s5.588-2.839,9.225-3.194,7.274-.887,11.088.444a29.528,29.528,0,0,1,8.6,4.79,17.878,17.878,0,0,1,5.322,6.741,23.238,23.238,0,0,1,2.572,8.427c.355,3.1.089,8.6-.709,10.911s-2.4,5.854-3.726,7.362a38.073,38.073,0,0,1-6.032,5.145,18.9,18.9,0,0,1-7.451,3.193,59.132,59.132,0,0,1-6.742.355Z" transform="translate(-1787.09 -3924.656)" fill="#30d5c8"/>
        <g id="Group_17" data-name="Group 17">
          <path id="Path_34" data-name="Path 34" d="M1913.07,4072.672a17.29,17.29,0,0,1,3.118,5.067,19.6,19.6,0,0,0,3.7,6.626c1.559,1.754,6.821,5.847,8.964,6.431a8.907,8.907,0,0,0,5.859,0,7.855,7.855,0,0,0,3.548-3.391,7.254,7.254,0,0,0,.976-4.435,22.391,22.391,0,0,0-1.685-4.169,5.08,5.08,0,0,0,5.056-1.062,14.865,14.865,0,0,0,3.371-3.905,8.684,8.684,0,0,0,.621-3.726c0-.976-1.42-3.016-1.42-3.016h-26.966a5.28,5.28,0,0,0-2.838,2.306A34.191,34.191,0,0,1,1913.07,4072.672Z" transform="translate(-1810.546 -3994.236)" fill="#fbfed2" stroke="#aaa07f" stroke-width="1"/>
          <path id="Path_35" data-name="Path 35" d="M1944.424,4078.736a7.9,7.9,0,0,1-6.121-1.153,30.033,30.033,0,0,1-7.362-6.3,19.883,19.883,0,0,0-5.234-3.992" transform="translate(-1817.772 -3994.352)" fill="none" stroke="#aaa07f" stroke-width="1"/>
          <path id="Path_36" data-name="Path 36" d="M1758.577,3946.552a48.414,48.414,0,0,1,1.686-10.943c1.5-4.8,3-7.646,4.348-9.295a23.315,23.315,0,0,1,7.046-5.846,35.2,35.2,0,0,1,6.3-3h21.437a55.265,55.265,0,0,1-9.894-7.046c-4.347-4.048-7.5-7.5-9.744-7.945s-4.347-.6-11.543-1.649a120.258,120.258,0,0,1-13.492-2.7c-3.148-.749-3.6-1.2-7.346-1.2s-3.148,0-5.7,1.2-7.5,5.547-12.443,8.7a173.961,173.961,0,0,0-17.39,12.592c-5.1,4.347-11.843,9.444-13.492,11.393s-1.949,5.546-2.4,8.395-1.5,19.188-1.8,26.385.75,30.432,0,35.378-.3,31.482,0,34.629-8.695,16.34-11.093,20.838-9.444,14.99-9.444,19.038.3,9,1.349,11.843,1.349,3.148,10.494,9,20.988,10.493,23.986,11.244,9.444-.3,11.993-3.149,6.446-8.245,10.644-17.09,7.8-17.689,13.492-26.234,9.444-14.242,14.541-24.585,6.3-13.343,9.145-25.186,3.448-19.188,4.8-26.234a55.23,55.23,0,0,1,2.7-10.194,24.19,24.19,0,0,1,2.135-3.327c.976-1.153,2.218-1.6,3.1-2.307a60.207,60.207,0,0,0,5.056-4.7c.975-1.153,5.411-6.121,6.83-8.959a43.7,43.7,0,0,0,2.927-7.9,17.188,17.188,0,0,0,0-6.475,21.861,21.861,0,0,0-2.04-6.121,41.614,41.614,0,0,0-3.371-3.992,21.657,21.657,0,0,0-6.209-2.661,20.824,20.824,0,0,0-6.21,0,14.647,14.647,0,0,0-5.411,2.661,32.99,32.99,0,0,0-4.7,3.992,41.4,41.4,0,0,0-3.459,4.524c-.71.976-3.371,4.613-4.435,5.234A23.816,23.816,0,0,0,1758.577,3946.552Z" transform="translate(-1673.615 -3896.932)" fill="#fbfed2" stroke="#aaa07f" stroke-width="1"/>
          <path id="Path_37" data-name="Path 37" d="M1803.371,4047.738s5.457-3.222,7.99-6.535,5.262-9.354,6.821-11.888a56.811,56.811,0,0,1,6.821-9.354c2.533-2.534,8.38-7.211,8.38-7.211" transform="translate(-1747.815 -3963.162)" fill="none" stroke="#aaa07f" stroke-linecap="round" stroke-width="1"/>
          <path id="Path_38" data-name="Path 38" d="M1793.463,4036.168a61.277,61.277,0,0,0,3.229,8.187,20.306,20.306,0,0,0,5.3,5.881,19.021,19.021,0,0,0,4.959,2.307" transform="translate(-1742.15 -3976.554)" fill="none" stroke="#aaa07f" stroke-linecap="round" stroke-width="1"/>
          <path id="Path_39" data-name="Path 39" d="M1816.993,4022.646a19.676,19.676,0,0,0-2.883-4.844c-1.845-2.191-5.074-3.229-5.65-3.69s.346-1.153-1.384-4.036-7.957-4.613-7.957-4.613" transform="translate(-1745.384 -3958.996)" fill="none" stroke="#aaa07f" stroke-linecap="round" stroke-width="1"/>
          <path id="Path_40" data-name="Path 40" d="M1836.287,4023.693a21.719,21.719,0,0,0,5.881-2.768c2.306-1.729,9.341-6.573,9.341-6.573" transform="translate(-1766.638 -3964.078)" fill="none" stroke="#aaa07f" stroke-linecap="round" stroke-width="1"/>
          <path id="Path_41" data-name="Path 41" d="M1820.494,4000.485a35.281,35.281,0,0,0,7.454-3.229,30.282,30.282,0,0,0,8.072-6.688c1.615-1.845,5.651-6.919,5.651-6.919l2.537,1.038" transform="translate(-1757.607 -3946.52)" fill="none" stroke="#aaa07f" stroke-linecap="round" stroke-width="1"/>
          <path id="Path_42" data-name="Path 42" d="M1801.813,3978.2s4.036,0,6.458-1.5a32.264,32.264,0,0,0,7.957-6.343c2.883-3.229,6-6.8,7.15-8.994s1.845-3.575,1.845-3.575a34.924,34.924,0,0,0,5.766,2.076c1.96.346,7.149,1.5,7.149,1.5" transform="translate(-1746.924 -3931.735)" fill="none" stroke="#aaa07f" stroke-linecap="round" stroke-width="1"/>
        </g>
        <g id="Group_18" data-name="Group 18" transform="translate(210.881)">
          <path id="Path_34-2" data-name="Path 34" d="M1946.6,4072.672a17.29,17.29,0,0,0-3.118,5.067,19.6,19.6,0,0,1-3.7,6.626c-1.559,1.754-6.821,5.847-8.964,6.431a8.907,8.907,0,0,1-5.859,0,7.855,7.855,0,0,1-3.548-3.391,7.254,7.254,0,0,1-.976-4.435,22.383,22.383,0,0,1,1.685-4.169,5.08,5.08,0,0,1-5.056-1.062,14.865,14.865,0,0,1-3.371-3.905,8.682,8.682,0,0,1-.621-3.726c0-.976,1.419-3.016,1.419-3.016h26.966a5.28,5.28,0,0,1,2.839,2.306A34.14,34.14,0,0,0,1946.6,4072.672Z" transform="translate(-1913.07 -3994.236)" fill="#fbfed2" stroke="#aaa07f" stroke-width="1"/>
          <path id="Path_35-2" data-name="Path 35" d="M1925.708,4078.736a7.9,7.9,0,0,0,6.121-1.153,30.033,30.033,0,0,0,7.362-6.3,19.883,19.883,0,0,1,5.234-3.992" transform="translate(-1916.304 -3994.352)" fill="none" stroke="#aaa07f" stroke-width="1"/>
          <path id="Path_36-2" data-name="Path 36" d="M1714.427,3946.552a48.41,48.41,0,0,0-1.686-10.943c-1.5-4.8-3-7.646-4.347-9.295a23.319,23.319,0,0,0-7.046-5.846,35.2,35.2,0,0,0-6.3-3h-21.437a55.261,55.261,0,0,0,9.894-7.046c4.347-4.048,7.5-7.5,9.744-7.945s4.347-.6,11.543-1.649a120.254,120.254,0,0,0,13.492-2.7c3.148-.749,3.6-1.2,7.346-1.2s3.148,0,5.7,1.2,7.5,5.547,12.442,8.7a173.962,173.962,0,0,1,17.39,12.592c5.1,4.347,11.843,9.444,13.492,11.393s1.949,5.546,2.4,8.395,1.5,19.188,1.8,26.385-.75,30.432,0,35.378.3,31.482,0,34.629,8.695,16.34,11.093,20.838,9.444,14.99,9.444,19.038-.3,9-1.349,11.843-1.349,3.148-10.494,9-20.987,10.493-23.986,11.244-9.444-.3-11.993-3.149-6.446-8.245-10.644-17.09-7.8-17.689-13.492-26.234-9.444-14.242-14.541-24.585-6.3-13.343-9.144-25.186-3.448-19.188-4.8-26.234a55.247,55.247,0,0,0-2.7-10.194,24.176,24.176,0,0,0-2.136-3.327c-.976-1.153-2.218-1.6-3.1-2.307a60.093,60.093,0,0,1-5.056-4.7c-.976-1.153-5.411-6.121-6.83-8.959a43.74,43.74,0,0,1-2.927-7.9,17.193,17.193,0,0,1,0-6.475,21.859,21.859,0,0,1,2.04-6.121,41.632,41.632,0,0,1,3.371-3.992,21.658,21.658,0,0,1,6.209-2.661,20.822,20.822,0,0,1,6.209,0,14.644,14.644,0,0,1,5.411,2.661,33,33,0,0,1,4.7,3.992,41.441,41.441,0,0,1,3.46,4.524c.71.976,3.371,4.613,4.435,5.234A23.832,23.832,0,0,1,1714.427,3946.552Z" transform="translate(-1663.334 -3896.932)" fill="#fbfed2" stroke="#aaa07f" stroke-width="1"/>
          <path id="Path_37-2" data-name="Path 37" d="M1833.382,4047.738s-5.456-3.222-7.99-6.535-5.262-9.354-6.821-11.888a56.823,56.823,0,0,0-6.821-9.354c-2.534-2.534-8.38-7.211-8.38-7.211" transform="translate(-1752.883 -3963.162)" fill="none" stroke="#aaa07f" stroke-linecap="round" stroke-width="1"/>
          <path id="Path_38-2" data-name="Path 38" d="M1806.955,4036.168a61.254,61.254,0,0,1-3.229,8.187,20.3,20.3,0,0,1-5.3,5.881,19.017,19.017,0,0,1-4.958,2.307" transform="translate(-1722.214 -3976.554)" fill="none" stroke="#aaa07f" stroke-linecap="round" stroke-width="1"/>
          <path id="Path_39-2" data-name="Path 39" d="M1799.119,4022.646A19.672,19.672,0,0,1,1802,4017.8c1.845-2.191,5.074-3.229,5.65-3.69s-.346-1.153,1.384-4.036,7.957-4.613,7.957-4.613" transform="translate(-1734.673 -3958.996)" fill="none" stroke="#aaa07f" stroke-linecap="round" stroke-width="1"/>
          <path id="Path_40-2" data-name="Path 40" d="M1851.509,4023.693a21.719,21.719,0,0,1-5.881-2.768c-2.306-1.729-9.34-6.573-9.34-6.573" transform="translate(-1785.102 -3964.078)" fill="none" stroke="#aaa07f" stroke-linecap="round" stroke-width="1"/>
          <path id="Path_41-2" data-name="Path 41" d="M1844.207,4000.485a35.285,35.285,0,0,1-7.453-3.229,30.283,30.283,0,0,1-8.072-6.688c-1.614-1.845-5.65-6.919-5.65-6.919l-2.537,1.038" transform="translate(-1771.039 -3946.52)" fill="none" stroke="#aaa07f" stroke-linecap="round" stroke-width="1"/>
          <path id="Path_42-2" data-name="Path 42" d="M1838.137,3978.2s-4.036,0-6.458-1.5a32.264,32.264,0,0,1-7.957-6.343c-2.883-3.229-6-6.8-7.15-8.994s-1.845-3.575-1.845-3.575a34.922,34.922,0,0,1-5.766,2.076c-1.96.346-7.149,1.5-7.149,1.5" transform="translate(-1756.97 -3931.735)" fill="none" stroke="#aaa07f" stroke-linecap="round" stroke-width="1"/>
        </g>
      </g>
      <rect id="Rectangle_177" data-name="Rectangle 177" width="43.596" height="17.438" rx="8.719" transform="translate(151.505 38.817)" fill="#229591"/>
    </g>
  </g>
</svg>
