<svg xmlns="http://www.w3.org/2000/svg" xmlns:xlink="http://www.w3.org/1999/xlink" width="507" height="998" viewBox="0 0 507 998">
  <defs>
    <clipPath id="clip-iPhone_13_Pro_12_Pro_1">
      <rect width="507" height="998"/>
    </clipPath>
  </defs>
  <g id="iPhone_13_Pro_12_Pro_1" data-name="iPhone 13 Pro, 12 Pro – 1" clip-path="url(#clip-iPhone_13_Pro_12_Pro_1)">
    <g id="Group_74" data-name="Group 74" transform="translate(-1555.627 -3196.923)">
      <path id="Path_18" data-name="Path 18" d="M1870.292,3609.852s-19.415,13.59-44.654,29.122a398.359,398.359,0,0,1-51.449,26.21s-13.59,1.941-27.181-19.415,3.883-44.653,3.883-44.653l94.161-43.684Z" transform="translate(107.314 101.544)" fill="none"/>
      <path id="Path_19" data-name="Path 19" d="M1882.993,3626.859s-9.517,9.856-30.929,22.432-66.508,33.854-66.508,33.854a18.191,18.191,0,0,1-6.545-.885c-5.754-1.572-15.217-7.393-20.468-20.416a31.985,31.985,0,0,1-2.142-5.712c-1.591-6.529-1.347-14.924-.476-21.3a57.1,57.1,0,0,1,5.474-17.731l95.764-42.241s6.457,4.418,14.955,23.452S1882.993,3626.859,1882.993,3626.859Z" transform="translate(115.899 112.705)" fill="#9cfffc"/>
      <path id="Path_20" data-name="Path 20" d="M1750.661,3593.3a50.363,50.363,0,0,0-10.57,22c-.385,2.048-1.312,8.147-1.083,10.674,1.36,14.955,1.116,16.607,11.653,30.542s34.668,15.974,34.668,15.974h2.875l7.735-1.189s-6.343.773-15.006-5.878c-3.333-2.56-3.249-2.487-5.415-5.26-1.155-1.46-4.641-5.372-6.343-9.592-3.868-9.592-2.63-7.735-3.558-16.863.155-18.564,6.5-28.156,6.5-28.156s-11.758.31-15.78-4.177A36.353,36.353,0,0,1,1750.661,3593.3Z" transform="translate(105.481 124.516)" fill="#229591"/>
      <path id="Path_21" data-name="Path 21" d="M1756.437,3619.161l74.166-32.624,25.927-12.086a79.12,79.12,0,0,1,12.995,18.719c5.43,11.061,10.829,25.062,10.829,25.062l2.321,8.818s-16.089,13.413-26.145,19.647-72.475,37.429-72.475,37.429a29.394,29.394,0,0,1-5.5,0c-3.164-.279-7.161-1.117-7.161-1.117l-1.02-.09" transform="translate(116.668 112.446)" fill="none" stroke="#229591" stroke-width="1"/>
      <path id="Path_22" data-name="Path 22" d="M1837.994,3567.406s-24.335,10.659-46.658,21.318-45.33,21.679-45.33,21.679,4.678,7.763,7.415,9.429a43.961,43.961,0,0,0,5.309,2.014l5.722.707,44.268-19.518L1834.3,3592.2l31.893-14.994s-.713-3.688-12.019-7.972S1837.994,3567.406,1837.994,3567.406Z" transform="translate(109.986 107.485)" fill="#cefffd"/>
      <path id="Path_23" data-name="Path 23" d="M1816.647,3575.685l4.719-2.082a94.1,94.1,0,0,1,8.354,14.232c4.177,8.664,11.138,26.145,11.138,26.145l3.249,13.923" transform="translate(155.234 111.902)" fill="none" stroke="#229591" stroke-width="1"/>
      <path id="Path_24" data-name="Path 24" d="M1818.9,3574.455c-1.165.416,9.282,13.923,9.282,13.923S1820.064,3574.04,1818.9,3574.455Z" transform="translate(156.619 112.442)" fill="none" stroke="#229591" stroke-width="1"/>
      <path id="Path_25" data-name="Path 25" d="M1772.407,3592.466l50.278-23.051s-.928-2.63-3.249-3.249a9.369,9.369,0,0,0-4.486,0l-52.289,23.824s4.177-2.166,6.343-.773A12.777,12.777,0,0,1,1772.407,3592.466Z" transform="translate(120.655 106.962)" fill="#229591" stroke="#229591" stroke-width="1"/>
      <path id="Path_26" data-name="Path 26" d="M1849.144,3612.589s6.579-8.937,9.978-10.244,21.7-13.6,21.7-13.6,1.307-11.765-2.353-16.994-12.026-11.765-16.21-13.073-18.3-3.922-30.851,0-22.223,7.32-26.667,9.151a17.787,17.787,0,0,0-6.291,3.938,19.488,19.488,0,0,1,2.318,3.137c.119.6.982-.995,3.973-1.947s9.655.238,13.344,1.19,10.234,3.927,11.067,4.879,4.046,4.284,4.046,4.284a67.955,67.955,0,0,1,9.044,14.4C1845.812,3605.687,1849.144,3612.589,1849.144,3612.589Z" transform="translate(143.578 101.019)" fill="#fbfed2" stroke="#aaa07f" stroke-width="1"/>
      <path id="Path_27" data-name="Path 27" d="M1873.1,3676.491s-.862,6.838,0,11.262.862,7.441,2.47,8.648,8.2.694,8.2.694,4.641-1.238,5.879,0a15.7,15.7,0,0,1,2.011,2.475l-11.757,5.878-24.752,12.376a54.931,54.931,0,0,0-4.406,6.361,56.741,56.741,0,0,0-4.76,10.472,53,53,0,0,0-2.142,13.447c-.119,4.521.595,13.208,1.309,15.708a33.585,33.585,0,0,0,4.641,10.115,95.422,95.422,0,0,0,11.067,13.566c2.975,2.737,10.115,5.712,11.067,6.069a25.148,25.148,0,0,0,2.5.713s-12.915,11.562-21.8,17.575a103.131,103.131,0,0,1-33.988,15.425c-15.164,3.922-17.517,2.353-41.308,9.151s-18.04,3.922-25.1,10.981-22.223,32.419-24.837,36.864-14.379,28.236-18.562,33.465-4.445,9.151-12.288,9.412-11.765-.784-19.608-5.752-86.8-46.538-86.8-46.538-15.164-6.013-15.687-14.118.261-7.582,2.876-13.334,19.87-33.727,21.962-37.387,16.994-32.942,19.347-36.341,5.752-6.537,10.719-10.2a103.378,103.378,0,0,0,20.393-20.131c6.536-8.889,23.269-38.433,30.851-56.211s19.609-43.138,22.223-48.89,19.347-30.851,21.961-35.034a135.258,135.258,0,0,1,14.379-18.3c6.536-7.059,25.1-41.047,25.1-41.047s15.425-26.929,19.609-33.726,4.968-7.844,8.628-10.72,22.223-17.255,26.406-19.608,23.792-14.9,26.406-16.732,11.765-7.582,13.334-7.843,4.706-1.307,6.8,0,2.248,1.91,2.248,1.91,7.271-4.641,10.21-6.5,20.421-12.531,27.382-16.089,16.863-7.426,16.863-7.426,13.769-10.829,18.1-13.769,20.73-14.387,20.73-14.387,7.271-.619,10.055,1.547,7.116,5.415,8.973,9.592,3.4,6.807,2.011,13.923-11.6,22.9-14.7,26.608-9.437,12.531-19.8,20.421-8.663,5.724-16.708,13.768-22.587,17.945-22.587,17.945,22.9-10.21,28.311-13.459,14.851-8.509,19.8-11.139,23.515-12.84,28-15.625,7.116-4.951,11.138-6.5,6.962-3.094,10.21-2.011,4.8,1.857,6.962,4.8,4.332,7.89,4.022,12.222-.618,13.149-4.022,18.254-4.486,8.818-16.4,17.327-16.089,12.531-24.443,19.8-19.956,14.7-25.526,18.719-17.327,12.376-22.432,14.542-7.58,2.63-8.354,3.094.928,6.652-2.63,12.995-5.879,9.591-9.437,17.481-7.271,15.625-12.222,22.432-8.044,10.056-10.365,15.006-2.94,19.028-4.641,29.393S1873.1,3676.491,1873.1,3676.491Z" transform="translate(0)" fill="#fbfed2" stroke="#aaa07f" stroke-width="1"/>
      <path id="Path_28" data-name="Path 28" d="M1807.544,3462.085s-9.673,4.967-16.209,8.1-8.1,3.138-12.811,9.674-8.889,11.5-14.38,18.563-10.719,15.164-18.824,25.883-14.118,19.085-14.118,19.085" transform="translate(100.504 40.472)" fill="none" stroke="#aaa07f" stroke-linecap="round" stroke-width="1"/>
      <path id="Path_29" data-name="Path 29" d="M1794.818,3434.515s-13.072,7.32-18.04,11.242-5.49,4.444-15.425,12.026-14.379,9.15-18.3,12.288-5.49,8.366-9.673,15.687-12.027,24.576-16.471,30.589-16.994,25.1-19.608,28.236-10.719,17.778-10.719,17.778" transform="translate(71.922 22.812)" fill="none" stroke="#aaa07f" stroke-linecap="round" stroke-width="1"/>
      <path id="Path_30" data-name="Path 30" d="M1838.627,3416.507s-13.6,13.072-23.792,20.916-14.9,12.549-26.145,20.916-11.5,8.366-23.269,16.733-6.536,8.627-17.255,24.576-16.733,26.929-23.269,38.433-10.458,14.379-15.687,24.053-6.536,12.288-6.536,12.288" transform="translate(82.232 11.277)" fill="none" stroke="#aaa07f" stroke-linecap="round" stroke-width="1"/>
    </g>
  </g>
</svg>
