<svg xmlns="http://www.w3.org/2000/svg" xmlns:xlink="http://www.w3.org/1999/xlink" width="390" height="844" viewBox="0 0 390 844">
  <defs>
    <clipPath id="clip-iPhone_13_Pro_12_Pro_9">
      <rect width="390" height="844"/>
    </clipPath>
  </defs>
  <g id="iPhone_13_Pro_12_Pro_9" data-name="iPhone 13 Pro, 12 Pro – 9" clip-path="url(#clip-iPhone_13_Pro_12_Pro_9)">
    <g id="Group_73" data-name="Group 73" transform="translate(28.56 199.265)">
      <g id="Group_31" data-name="Group 31" transform="translate(0 23.808)">
        <path id="Path_77" data-name="Path 77" d="M2473.305,3285.114c.4,0-.134-.134.668-2.272s1.336-2.139,1.336-2.139-1.6,0-2-.8a4.481,4.481,0,0,1-.668-1.872c-.134-.935-2.005-3.074-.668-5.079s3.876-.668,4.144,0,1.069,2.138,1.2,2.673,1.738,1.07,2.005.668,1.069-.936,1.069-1.47-.252-3.567.416-3.967,1.055.358,1.055.358.4.4,1.069-2.139.534-2.54,1.47-2.54,3.475.8,3.208,0-2.272-1.6-2.406-2,2-.134,3.074.668,1.6,0,1.6,0a17.7,17.7,0,0,1-1.6-1.6c-.268-.4,2.423.9,3.358,1.967a6.7,6.7,0,0,0,2.122,1.582,3.986,3.986,0,0,0,0-1.945c-.268-1.069,1.6-2.272,1.737-3.074s.134-3.208-1.737-4.143,1.737-1.2,1.737-1.2a4.851,4.851,0,0,0-2.673,0c-1.6.4-.668-1.336-.668-1.336a12.9,12.9,0,0,0-3.208.535c-.8.4,0-1.121,0-1.121a29.244,29.244,0,0,0-3.743-.244c-1.354.061-3.97.487-3.97.487l.629-1.034a22.887,22.887,0,0,0-2.819-.243c-1.217,0-6.328.122-9.8,2.555s-6.023,8.216-6.266,8.823,1.156,0,1.156,0a27.655,27.655,0,0,0-.669,4.5c.122.851-.669,3.224-.487,3.894s2.008,1.566,2.129,2.7,1.217,2.518.913,4.411a10.182,10.182,0,0,0,0,3.354,3.582,3.582,0,0,1,1.582.243c.487.3,1.156,2.495,1.217,3.1s0,1.156.426,1.034,2.008-1.643,2.008-2.373.152-.745.715-.95A2.654,2.654,0,0,1,2473.305,3285.114Z" transform="translate(-2455.933 -3253.82)" fill="#229591" stroke="#229591" stroke-width="1"/>
        <path id="Path_78" data-name="Path 78" d="M2472.07,3310.664a10.741,10.741,0,0,0,2.059-2.809,36.723,36.723,0,0,0,.375-4.071,8.534,8.534,0,0,0,2.106-1.357c.28-.468.187-1.4.468-1.591s.8-.515,1.17-.421a1.409,1.409,0,0,0,.983,0c.234-.141,0-1.03.234-1.779a20,20,0,0,1,1.544-2.761,2.836,2.836,0,0,1-1.544-.562,2.767,2.767,0,0,1-.983-1.966c0-.749-1.029-2.012-1.216-2.808a2.576,2.576,0,0,1,.375-2.574,2.983,2.983,0,0,1,2.386-.655c.281.14.983.14,1.357.843s.749,2.48,1.591,3.088,1.5.655,2.012.281,1.217-.889,1.217-1.4a11.419,11.419,0,0,1-.234-3c.234-.889.7-1.076.936-.982s.421.468.608.468.749-.468,1.124-1.965.281-2.667.8-2.667,2.34.374,3,.374.983-.141.983-.374-.328-.609-.983-1.217a9.945,9.945,0,0,0-1.778-1.124,5.58,5.58,0,0,1,2.387.468,3.986,3.986,0,0,0,1.825.889c.468,0,.936-.7.936-.7l-1.592-1.216a11.947,11.947,0,0,1,2.34,1.029,5.269,5.269,0,0,1,1.5,3.557,14.651,14.651,0,0,1,0,4.305c-.187.468-1.123.889-1.029,1.4s2.2,3.65,2.48,4.446-.187,1.31-.889,1.779-1.31.047-1.591.281.328,2.48.328,2.761-.515.8-.749,1.217.094.889,0,1.217a1.5,1.5,0,0,1-.889.8c-.328.094-.328.656-.281,1.17s.234,2.106-.889,2.246a9.64,9.64,0,0,1-3.7-.375c-1.451-.374-1.31-.843-2.34-.562s-1.544,2.012-1.591,4.024a15.828,15.828,0,0,0,.375,4.352c.188.375.655.562.983,1.264a16.647,16.647,0,0,1,1.264,3.744c.14,1.124.328,1.451-.234,1.779a3.365,3.365,0,0,1-3.136-.936,34.947,34.947,0,0,0-3.978-4.118,13.932,13.932,0,0,0-5.335-2.668C2474.41,3311.132,2472.07,3310.664,2472.07,3310.664Z" transform="translate(-2461.416 -3269.005)" fill="#fbfed2" stroke="#aaa07f" stroke-width="1"/>
        <path id="Path_79" data-name="Path 79" d="M2465.024,3359.789s2.761-1.5,2.9-1.5,2.339.514,3.322.8a23.9,23.9,0,0,1,4.024,1.263,30.834,30.834,0,0,1,3.37,2.293c.842.749,2.48,2.855,3.276,3.6a4.526,4.526,0,0,0,2.35,1.026c.249,0,.775,0,.969-.249a1.388,1.388,0,0,0,.194-1.274c-.139-.72-.609-2.188-.637-2.271s-.72-1.855-.969-2.3-1.017-.925-.643-.831a7.307,7.307,0,0,1,4.554,2.2,15.867,15.867,0,0,1,1.389,1.877,34.28,34.28,0,0,1,4.446,8.236,70.274,70.274,0,0,1,3.369,12.636,41.124,41.124,0,0,1,.375,7.16,19.4,19.4,0,0,1-6.271-4.68,99.043,99.043,0,0,1-8.33-12.4c-1.357-2.434-4.727-9.172-6.318-10.951s-2.808-3.558-5.756-4.072A41.049,41.049,0,0,0,2465.024,3359.789Z" transform="translate(-2457.179 -3316.634)" fill="#30d5c8" stroke="#30d5c8" stroke-width="1"/>
        <path id="Path_80" data-name="Path 80" d="M2488.569,3411.61a70.858,70.858,0,0,1-6.853-4.12c-3.346-2.312-4.137-3.589-6.753-6.327s-3.285-3.954-7.118-7.118-9.491-7.422-11.985-9.491-5.78-4.806-6.753-9.187-.547-6.875.913-9.187a7.68,7.68,0,0,1,4.685-3.407,15.234,15.234,0,0,1,5.6.426,7.9,7.9,0,0,1,4.38,2.373,28.4,28.4,0,0,1,4.5,5.962c.852,1.4,5.232,9.673,6.753,12.046s4.624,6.875,6.875,8.761,4.137,2.434,8.517,6.266,15.209,13.445,17.1,14.966a13.393,13.393,0,0,0,5.536,2.555c1.46.3,5.536.609,6.632.974a14.826,14.826,0,0,1,4.259,3.1c.365.608.183,3.529,0,4.015s-1.217.548-1.217.548.016,1.642-.74,1.678a10.127,10.127,0,0,1-1.188,0s-.072,1.152-.756,1.512a4.681,4.681,0,0,1-1.872.324,1.253,1.253,0,0,1-1.116,1.26,13.977,13.977,0,0,1-3.132-.324c-.288-.036,1.4-.612,1.476-1.26a1.852,1.852,0,0,0-.936-1.98,5.063,5.063,0,0,0-3.168-1.21c-2.268-.3-4.248-1.453-6.587-3.686s-4.968-3.2-7.992-4.68-7.115-3.771-7.115-3.771Z" transform="translate(-2447.293 -3319.276)" fill="#fbfed2" stroke="#aaa07f" stroke-width="1"/>
        <path id="Path_82" data-name="Path 82" d="M2633.6,3511.192a5.844,5.844,0,0,0,0-2.6c-.365-.913-2.129-1.947-2.129-1.947" transform="translate(-2557.255 -3405.831)" fill="none" stroke="#aaa07f" stroke-linecap="round" stroke-width="1"/>
        <path id="Path_83" data-name="Path 83" d="M2628.278,3515.294a4.346,4.346,0,0,0-.2-2.557,6.43,6.43,0,0,0-2.251-2.129" transform="translate(-2553.861 -3408.216)" fill="none" stroke="#aaa07f" stroke-linecap="round" stroke-width="1"/>
        <path id="Path_84" data-name="Path 84" d="M2622.161,3520.086a5.461,5.461,0,0,0,0-2.686,8.556,8.556,0,0,0-2.135-1.909" transform="translate(-2550.375 -3411.152)" fill="none" stroke="#aaa07f" stroke-linecap="round" stroke-width="1"/>
        <path id="Path_85" data-name="Path 85" d="M2451.4,3452.468s13.469,2.879,19.741,2.673,19.844-.514,19.844-.514-.616-8.02-.616-10.693v-7.506s-2.825-1.43-4.016-2.15a39.793,39.793,0,0,1-5.261-3.683c-1.662-1.468-4.237-4.32-5.345-5.538a53.37,53.37,0,0,0-6.092-6.148c-2.631-2.1-7.394-5.843-8.861-6.95s-5.206-4.154-6.036-4.985a36.074,36.074,0,0,1-2.409-3.018v1.219s.463,2.9.7,6.271.7,8,.7,11.606.608,7.16-.187,13.852S2451.4,3452.468,2451.4,3452.468Z" transform="translate(-2448.99 -3344.09)" fill="#30d5c8" stroke="#30d5c8" stroke-width="1"/>
        <path id="Path_86" data-name="Path 86" d="M2568.473,3422.151a3.232,3.232,0,0,1,1.931-.813,4.418,4.418,0,0,1,2.643.813,5.17,5.17,0,0,1,1.118,2.744c-.051.458-1.118,1.322-1.118,1.322a5.518,5.518,0,0,0,2.287,0,3.275,3.275,0,0,0,1.373-.915c.1-.254.863.1,1.321-.406a2.1,2.1,0,0,0,.508-1.118s1.068.051,1.474-.61a6.435,6.435,0,0,0,.61-1.83s.458-.051.559-.407a2.686,2.686,0,0,0-.2-2.287,15.185,15.185,0,0,0-1.931-2.49c-.61-.711-2.744-.051-6-1.271s-3.3-1.068-4.879-2.185-6.505-4.676-8.792-6.607-7.42-5.642-9.758-7.471-1.473-.762-3.913-2.591a43.237,43.237,0,0,1-6.2-6.455c-.864-1.067-5.184-6.3-6.455-8.335s-3.354-6.2-5.438-8.386a13.41,13.41,0,0,0-3.722-2.916l.017.024.038.053.156.218.12.15.811,1.088a33.621,33.621,0,0,1,2.376,4.15,45.775,45.775,0,0,1,3.067,7.458,79.18,79.18,0,0,1,1.928,7.988,51.2,51.2,0,0,1,.646,7.929,65.193,65.193,0,0,1,6.455,4.823,33.387,33.387,0,0,0,8.426,5.748c3.964,1.982,9.348,4.493,11.446,5.748s4.279,1.85,5.732,3.7A16.768,16.768,0,0,0,2568.473,3422.151Z" transform="translate(-2492.572 -3323.636)" fill="#fbfed2" stroke="#aaa07f" stroke-width="1"/>
        <path id="Path_87" data-name="Path 87" d="M2654,3501.287a8.068,8.068,0,0,0,.484-2.4c0-1.118-2.084-2.592-2.084-2.592" transform="translate(-2569.839 -3399.611)" fill="none" stroke="#aaa07f" stroke-linecap="round" stroke-width="1"/>
        <path id="Path_88" data-name="Path 88" d="M2658.1,3497.679a6.054,6.054,0,0,0,0-2.461,6.424,6.424,0,0,0-1.88-2.236" transform="translate(-2572.137 -3397.618)" fill="none" stroke="#aaa07f" stroke-linecap="round" stroke-width="1"/>
        <path id="Path_89" data-name="Path 89" d="M2662.457,3493.3a4.086,4.086,0,0,0-.785-2.112c-.661-.661-1.626-1.525-1.626-1.525" transform="translate(-2574.437 -3395.625)" fill="none" stroke="#aaa07f" stroke-linecap="round" stroke-width="1"/>
        <path id="Path_90" data-name="Path 90" d="M2445.583,3575.068h28.741V3572.6h14.08v-14.951c0-13.934-.871-29.466-.871-29.466a124.775,124.775,0,0,1-13.7.508c-8.945-.051-5.184.813-13.417-.407s-12.655-2.287-12.655-2.287a173.859,173.859,0,0,0-2.179,19.8C2445.059,3556.4,2445.583,3575.068,2445.583,3575.068Z" transform="translate(-2445.35 -3417.468)" fill="#229591" stroke="#229591" stroke-width="1"/>
        <path id="Path_91" data-name="Path 91" d="M2523.049,3559.96a4,4,0,0,0-2.68,2.792c-.558,2.233-.447,4.578-.67,10.831s-.558,3.126-.67,6.365.335,7.258,0,9.044a20.6,20.6,0,0,0-.217,4.065" transform="translate(-2489.508 -3437.889)" fill="none" stroke="#fff" stroke-linecap="round" stroke-width="1"/>
        <path id="Path_92" data-name="Path 92" d="M2637.823,3504.967a5,5,0,0,0,1.457-.6,7.2,7.2,0,0,0,1.3-1.087c.231-.254.439-.37.439-.6a5.977,5.977,0,0,0-.555-1.643,2.491,2.491,0,0,0-1.064-1.018,7.268,7.268,0,0,0-1.989-.416,3.2,3.2,0,0,0-1.157.416,4.269,4.269,0,0,0-.763.532s.694.532,1.133.925.81.6,1.018,1.087a5.422,5.422,0,0,1,.185,1.6Z" transform="translate(-2559.671 -3401.592)" fill="#229591" stroke="#229591" stroke-width="1"/>
        <path id="Path_93" data-name="Path 93" d="M2602.417,3519.556a3.369,3.369,0,0,1,1.55-.509,5.576,5.576,0,0,1,2.267.416,6.531,6.531,0,0,1,1.851,1.134,1.715,1.715,0,0,1,.416,1.226c-.092.324-.763.81-1.388,1.087s-1.735.648-1.735.648a2.976,2.976,0,0,0,.439-1.735,2.831,2.831,0,0,0-.879-1.527,3.964,3.964,0,0,0-1.341-.578A4.382,4.382,0,0,0,2602.417,3519.556Z" transform="translate(-2539.787 -3413.29)" fill="#229591" stroke="#229591" stroke-width="1"/>
        <path id="Path_94" data-name="Path 94" d="M2597.854,3521.848a1.538,1.538,0,0,1,.486-.463,1.29,1.29,0,0,1,.463-.231,3.439,3.439,0,0,1,2.66.37c.694.6.578.486.856,1.087a1.745,1.745,0,0,1,.116,1.5,2.047,2.047,0,0,1-.763,1.2,2.655,2.655,0,0,1-2.151.625,2.188,2.188,0,0,1-2.013-1.99A2.666,2.666,0,0,1,2597.854,3521.848Z" transform="translate(-2536.798 -3414.495)" fill="#cefffd" stroke="#cefffd" stroke-width="1"/>
        <path id="Path_95" data-name="Path 95" d="M2594.19,3519.827v-2.538s.36.03.511-.752a3.613,3.613,0,0,0,.12-.932s.782.09,1.082-.361a4.084,4.084,0,0,0,.3-1.624h.542v73.7l-.333,25.157s.1,13.621,0,15.5-1.423,6.962-2.287,8.284-3.1,5.845-6.708,7.929a27.246,27.246,0,0,1-10.623,3.3c-2.49.152-10.164.3-10.164.3s-.559-1.27,0-1.677.61-.1,1.575,0,9.708.458,12.858-.711,6.3-2.694,7.928-4.523,4.422-5.794,5.133-8.793.458-12.147.458-12.147V3567.5l-.2-30.138Z" transform="translate(-2518.122 -3410.026)" fill="#229591" stroke="#229591" stroke-width="1"/>
        <path id="Path_97" data-name="Path 97" d="M2458.62,3822.911l24.136-11.767,29.46,6.442s1.8.085.773.6-22.5,13.228-22.5,13.228a5.129,5.129,0,0,1-2.92.6c-1.374-.258-26.626-7.644-27.829-8.16S2458.62,3822.911,2458.62,3822.911Z" transform="translate(-2453.328 -3588.915)" fill="#cefffd" stroke="#cefffd" stroke-width="1"/>
        <path id="Path_98" data-name="Path 98" d="M2458.188,3843.312s27.971,9.4,29.089,9.4a4.1,4.1,0,0,0,2.694-.508c1.575-.711,11.794-7.418,11.794-7.418s-.715-.459-.715-.714a5.169,5.169,0,0,1,.11-.763l-5.548,3.2s-4.574,2.8-5.336,3.152a4.4,4.4,0,0,1-2.745.762c-1.271-.152-29.343-8.741-29.343-8.741l-.286-.61v1.982Z" transform="translate(-2452.897 -3606.912)" fill="#229591" stroke="#229591" stroke-width="1"/>
        <path id="Path_99" data-name="Path 99" d="M2579.009,3828.948l.21,2.075-8.691,4.6h-2.586Z" transform="translate(-2519.059 -3599.62)" fill="#229591" stroke="#229591" stroke-width="1"/>
        <path id="Path_96" data-name="Path 96" d="M2549.761,3834.881l-6.184,3.178s-.515,1.031,0,1.546a3.219,3.219,0,0,0,2.319.516c.6-.086,7.386-3.951,7.386-3.951s.429-1.031-1.116-1.288A5.812,5.812,0,0,0,2549.761,3834.881Z" transform="translate(-2504.454 -3602.719)" fill="#229591" stroke="#229591" stroke-width="1"/>
        <path id="Path_100" data-name="Path 100" d="M2464.2,3722.981a2.068,2.068,0,0,0,.528,2.247c1.057.859,4.823,1.52,7.532,2.709s7.73,3.832,9.844,4.03a14.815,14.815,0,0,0,6.079-1.322c1.057-.462,2.709-1.454,2.51-2.708s-1.189-1.586-4.229-2.709a38.873,38.873,0,0,1-8.523-5.088,11.806,11.806,0,0,1-3.9-4.625c-1.123-2.51-1.784-4.427-2.114-9.448s-.2-13.28,0-16.517.727-8.259.66-10.307a34.564,34.564,0,0,1,1.255-9.118c.925-3.3,2.973-8.523,3.5-11.628s.991-8.391.991-8.391h-20.35a76.486,76.486,0,0,1,1.322,10.042c0,3.238.264,4.823-.925,9.448s-2.312,7.862-1.52,12.157,3.634,13.941,5.021,20.02,2.511,7.531,2.841,13.478S2464.2,3722.981,2464.2,3722.981Z" transform="translate(-2452.113 -3492.09)" fill="#fbfed2" stroke="#aaa07f" stroke-width="1"/>
        <path id="Path_101" data-name="Path 101" d="M2503.044,3709.088a4.175,4.175,0,0,0-.33,2.51,3.2,3.2,0,0,0,2.378,2.511c1.189.4,5.484.925,7.665,1.784a65.242,65.242,0,0,0,8.787,2.907c2.775.594,4.426.793,5.748.462s1.784-.661,1.916-1.652-.793-1.718-1.916-2.379-5.484-1.718-8.06-3.237-5.748-4.3-6.8-6.277-1.652-4.427-1.388-8.853.264-11.893.462-17.112-.529-12.091.462-16.65,2.577-8.258,3.237-11.628,1.123-7.334,1.123-7.334h-10.5v2.445h-2.775s-.727,7.466-1.189,9.315-2.247,7.07-2.973,9.316a35.5,35.5,0,0,0-1.52,8.721,31.194,31.194,0,0,0,1.255,8.061c.793,2.841,2.246,7.334,3.105,11.3s2.114,6.606,1.85,10.108S2503.044,3709.088,2503.044,3709.088Z" transform="translate(-2476.623 -3488.503)" fill="#fbfed2" stroke="#aaa07f" stroke-width="1"/>
      </g>
      <g id="Ellipse_28" data-name="Ellipse 28" transform="translate(29.541 238.923)" fill="#229591" stroke="#229591" stroke-width="1">
        <circle cx="2.703" cy="2.703" r="2.703" stroke="none"/>
        <circle cx="2.703" cy="2.703" r="2.203" fill="none"/>
      </g>
      <g id="Ellipse_29" data-name="Ellipse 29" transform="translate(66.299 124.327)" fill="#229591" stroke="#229591" stroke-width="1">
        <circle cx="2.432" cy="2.432" r="2.432" stroke="none"/>
        <circle cx="2.432" cy="2.432" r="1.932" fill="none"/>
      </g>
      <g id="Ellipse_30" data-name="Ellipse 30" transform="translate(49.001 94.056)" fill="#229591" stroke="#229591" stroke-width="1">
        <ellipse cx="2.432" cy="2.703" rx="2.432" ry="2.703" stroke="none"/>
        <ellipse cx="2.432" cy="2.703" rx="1.932" ry="2.203" fill="none"/>
      </g>
      <path id="Path_102" data-name="Path 102" d="M2392.713,4241.858,2428,4210.911h41.7" transform="translate(-2340.333 -4146.165)" fill="none" stroke="#229591" stroke-width="3"/>
      <path id="Path_103" data-name="Path 103" d="M2495.6,4385.765h-35.476l-24.342-17.737" transform="translate(-2366.227 -4240.632)" fill="none" stroke="#229591" stroke-width="3"/>
      <path id="Path_104" data-name="Path 104" d="M2439.83,4625.471l-34.155,35.1h-41.892l-19.813-22.833" transform="translate(-2311.025 -4395.422)" fill="none" stroke="#229591" stroke-width="3"/>
      <rect id="Rectangle_193" data-name="Rectangle 193" width="119.462" height="100.002" rx="50.001" transform="translate(137.652)" fill="#fff" opacity="0.48"/>
      <g id="Group_54" data-name="Group 54" transform="translate(160.004 5.89)">
        <g id="Group_34" data-name="Group 34" transform="translate(0)">
          <g id="Group_33" data-name="Group 33">
            <path id="Path_78-2" data-name="Path 78" d="M2472.07,3347.923a10.74,10.74,0,0,0,2.059-2.808,36.73,36.73,0,0,0,.375-4.072s15.022.281,13.993.562-1.544,2.013-1.591,4.025a15.828,15.828,0,0,0,.375,4.352c.188.375.655.562.983,1.264a16.647,16.647,0,0,1,1.264,3.744c.14,1.123.328,1.451-.234,1.779a3.365,3.365,0,0,1-3.136-.937,35.023,35.023,0,0,0-3.978-4.118,13.931,13.931,0,0,0-5.335-2.667C2474.41,3348.391,2472.07,3347.923,2472.07,3347.923Z" transform="translate(-2462.163 -3341.043)" fill="#fbfed2" stroke="#aaa07f" stroke-width="1"/>
            <path id="Path_79-2" data-name="Path 79" d="M2465.024,3359.789s2.761-1.5,2.9-1.5,2.339.514,3.322.8a23.9,23.9,0,0,1,4.024,1.263,30.834,30.834,0,0,1,3.37,2.293c.842.749,2.48,2.855,3.276,3.6a4.526,4.526,0,0,0,2.35,1.026c.249,0,.775,0,.969-.249a1.388,1.388,0,0,0,.194-1.274c-.139-.72-.609-2.188-.637-2.271s-.72-1.855-.969-2.3-1.017-.925-.643-.831a7.307,7.307,0,0,1,4.554,2.2,15.867,15.867,0,0,1,1.389,1.877,34.28,34.28,0,0,1,4.446,8.236,70.274,70.274,0,0,1,3.369,12.636,41.124,41.124,0,0,1,.375,7.16,19.4,19.4,0,0,1-6.271-4.68,99.043,99.043,0,0,1-8.33-12.4c-1.357-2.434-4.727-9.172-6.318-10.951s-2.808-3.558-5.756-4.072A41.049,41.049,0,0,0,2465.024,3359.789Z" transform="translate(-2457.927 -3351.414)" fill="#30d5c8" stroke="#30d5c8" stroke-width="1"/>
            <path id="Path_80-2" data-name="Path 80" d="M2488.569,3411.61a70.858,70.858,0,0,1-6.853-4.12c-3.346-2.312-4.137-3.589-6.753-6.327s-3.285-3.954-7.118-7.118-9.491-7.422-11.985-9.491-5.78-4.806-6.753-9.187-.547-6.875.913-9.187a7.68,7.68,0,0,1,4.685-3.407,15.234,15.234,0,0,1,5.6.426,7.9,7.9,0,0,1,4.38,2.373,28.4,28.4,0,0,1,4.5,5.962c.852,1.4,5.232,9.673,6.753,12.046s4.624,6.875,6.875,8.761,4.137,2.434,8.517,6.266,15.209,13.445,17.1,14.966a13.393,13.393,0,0,0,5.536,2.555c1.46.3,5.536.609,6.632.974a14.826,14.826,0,0,1,4.259,3.1c.365.608.183,3.529,0,4.015s-1.217.548-1.217.548.016,1.642-.74,1.678a10.127,10.127,0,0,1-1.188,0s-.072,1.152-.756,1.512a4.681,4.681,0,0,1-1.872.324,1.253,1.253,0,0,1-1.116,1.26,13.977,13.977,0,0,1-3.132-.324c-.288-.036,1.4-.612,1.476-1.26a1.852,1.852,0,0,0-.936-1.98,5.063,5.063,0,0,0-3.168-1.21c-2.268-.3-4.248-1.453-6.587-3.686s-4.968-3.2-7.992-4.68-7.115-3.771-7.115-3.771Z" transform="translate(-2448.041 -3354.056)" fill="#fbfed2" stroke="#aaa07f" stroke-width="1"/>
            <path id="Path_82-2" data-name="Path 82" d="M2633.6,3511.192a5.844,5.844,0,0,0,0-2.6c-.365-.913-2.129-1.947-2.129-1.947" transform="translate(-2558.003 -3440.611)" fill="none" stroke="#aaa07f" stroke-linecap="round" stroke-width="1"/>
            <path id="Path_83-2" data-name="Path 83" d="M2628.278,3515.294a4.346,4.346,0,0,0-.2-2.557,6.43,6.43,0,0,0-2.251-2.129" transform="translate(-2554.609 -3442.996)" fill="none" stroke="#aaa07f" stroke-linecap="round" stroke-width="1"/>
            <path id="Path_84-2" data-name="Path 84" d="M2622.161,3520.086a5.461,5.461,0,0,0,0-2.686,8.556,8.556,0,0,0-2.135-1.909" transform="translate(-2551.123 -3445.932)" fill="none" stroke="#aaa07f" stroke-linecap="round" stroke-width="1"/>
            <path id="Path_85-2" data-name="Path 85" d="M2451.4,3452.468s13.469,2.879,19.741,2.673,19.844-.514,19.844-.514-.616-8.02-.616-10.693v-7.506s-2.825-1.43-4.016-2.15a39.793,39.793,0,0,1-5.261-3.683c-1.662-1.468-4.237-4.32-5.345-5.538a53.37,53.37,0,0,0-6.092-6.148c-2.631-2.1-7.394-5.843-8.861-6.95s-5.206-4.154-6.036-4.985a36.074,36.074,0,0,1-2.409-3.018v1.219s.463,2.9.7,6.271.7,8,.7,11.606.608,7.16-.187,13.852S2451.4,3452.468,2451.4,3452.468Z" transform="translate(-2449.738 -3378.87)" fill="#30d5c8" stroke="#30d5c8" stroke-width="1"/>
            <path id="Path_86-2" data-name="Path 86" d="M2568.473,3422.151a3.232,3.232,0,0,1,1.931-.813,4.418,4.418,0,0,1,2.643.813,5.17,5.17,0,0,1,1.118,2.744c-.051.458-1.118,1.322-1.118,1.322a5.518,5.518,0,0,0,2.287,0,3.275,3.275,0,0,0,1.373-.915c.1-.254.863.1,1.321-.406a2.1,2.1,0,0,0,.508-1.118s1.068.051,1.474-.61a6.435,6.435,0,0,0,.61-1.83s.458-.051.559-.407a2.686,2.686,0,0,0-.2-2.287,15.185,15.185,0,0,0-1.931-2.49c-.61-.711-2.744-.051-6-1.271s-3.3-1.068-4.879-2.185-6.505-4.676-8.792-6.607-7.42-5.642-9.758-7.471-1.473-.762-3.913-2.591a43.237,43.237,0,0,1-6.2-6.455c-.864-1.067-5.184-6.3-6.455-8.335s-3.354-6.2-5.438-8.386a13.41,13.41,0,0,0-3.722-2.916l.017.024.038.053.156.218.12.15.811,1.088a33.621,33.621,0,0,1,2.376,4.15,45.775,45.775,0,0,1,3.067,7.458,79.18,79.18,0,0,1,1.928,7.988,51.2,51.2,0,0,1,.646,7.929,65.193,65.193,0,0,1,6.455,4.823,33.387,33.387,0,0,0,8.426,5.748c3.964,1.982,9.348,4.493,11.446,5.748s4.279,1.85,5.732,3.7A16.768,16.768,0,0,0,2568.473,3422.151Z" transform="translate(-2493.32 -3358.416)" fill="#fbfed2" stroke="#aaa07f" stroke-width="1"/>
            <path id="Path_87-2" data-name="Path 87" d="M2654,3501.287a8.068,8.068,0,0,0,.484-2.4c0-1.118-2.084-2.592-2.084-2.592" transform="translate(-2570.587 -3434.391)" fill="none" stroke="#aaa07f" stroke-linecap="round" stroke-width="1"/>
            <path id="Path_88-2" data-name="Path 88" d="M2658.1,3497.679a6.054,6.054,0,0,0,0-2.461,6.424,6.424,0,0,0-1.88-2.236" transform="translate(-2572.885 -3432.398)" fill="none" stroke="#aaa07f" stroke-linecap="round" stroke-width="1"/>
            <path id="Path_89-2" data-name="Path 89" d="M2662.457,3493.3a4.086,4.086,0,0,0-.785-2.112c-.661-.661-1.626-1.525-1.626-1.525" transform="translate(-2575.185 -3430.405)" fill="none" stroke="#aaa07f" stroke-linecap="round" stroke-width="1"/>
            <g id="Group_32" data-name="Group 32" transform="translate(0 73.749)">
              <path id="Path_90-2" data-name="Path 90" d="M2489.189,3540.248c-.241-6.912-.53-12.065-.53-12.065a124.759,124.759,0,0,1-13.7.508c-8.945-.051-5.184.813-13.417-.407s-12.655-2.287-12.655-2.287l-1.664,12.714s16.328,1.258,28.824,1.537C2479.579,3540.327,2489.21,3540.826,2489.189,3540.248Z" transform="translate(-2447.225 -3525.997)" fill="#229591" stroke="#229591" stroke-width="1"/>
            </g>
            <path id="Path_92-2" data-name="Path 92" d="M2637.823,3504.967a5,5,0,0,0,1.457-.6,7.2,7.2,0,0,0,1.3-1.087c.231-.254.439-.37.439-.6a5.977,5.977,0,0,0-.555-1.643,2.491,2.491,0,0,0-1.064-1.018,7.268,7.268,0,0,0-1.989-.416,3.2,3.2,0,0,0-1.157.416,4.269,4.269,0,0,0-.763.532s.694.532,1.133.925.81.6,1.018,1.087a5.422,5.422,0,0,1,.185,1.6Z" transform="translate(-2560.419 -3436.372)" fill="#229591" stroke="#229591" stroke-width="1"/>
            <path id="Path_93-2" data-name="Path 93" d="M2602.417,3519.556a3.369,3.369,0,0,1,1.55-.509,5.576,5.576,0,0,1,2.267.416,6.531,6.531,0,0,1,1.851,1.134,1.715,1.715,0,0,1,.416,1.226c-.092.324-.763.81-1.388,1.087s-1.735.648-1.735.648a2.976,2.976,0,0,0,.439-1.735,2.831,2.831,0,0,0-.879-1.527,3.964,3.964,0,0,0-1.341-.578A4.382,4.382,0,0,0,2602.417,3519.556Z" transform="translate(-2540.535 -3448.07)" fill="#229591" stroke="#229591" stroke-width="1"/>
            <path id="Path_94-2" data-name="Path 94" d="M2597.854,3521.848a1.538,1.538,0,0,1,.486-.463,1.29,1.29,0,0,1,.463-.231,3.439,3.439,0,0,1,2.66.37c.694.6.578.486.856,1.087a1.745,1.745,0,0,1,.116,1.5,2.047,2.047,0,0,1-.763,1.2,2.655,2.655,0,0,1-2.151.625,2.188,2.188,0,0,1-2.013-1.99A2.666,2.666,0,0,1,2597.854,3521.848Z" transform="translate(-2537.545 -3449.275)" fill="#cefffd" stroke="#cefffd" stroke-width="1"/>
          </g>
          <path id="Path_105" data-name="Path 105" d="M2884.869,4254.069v-1.212s.7-.391.7-.978.2-.664.2-.664.9-.039.978-.469.234-1.485.234-1.485v17.24h-2.111Z" transform="translate(-2809.648 -4180.42)" fill="#229591" stroke="#229591" stroke-width="1"/>
        </g>
        <path id="Path_106" data-name="Path 106" d="M2777.6,4167.237l-46.987-45.289.943,55.667" transform="translate(-2716.902 -4103.873)" fill="none" stroke="#229591" stroke-width="3"/>
      </g>
      <rect id="Rectangle_194" data-name="Rectangle 194" width="223.788" height="70.272" rx="35.136" transform="translate(137.652 107.029)" fill="#fff" opacity="0.48"/>
      <g id="Group_42" data-name="Group 42" transform="translate(156.039 124.125)">
        <path id="Path_112" data-name="Path 112" d="M2645.973,4426.948H2673.8a8.97,8.97,0,0,1,2.4,3.264c.43,1.546.43,3.264,0,3.521a4.789,4.789,0,0,1-3.436-.945c-.773-.773-3.006-2.834-4.38-3.092s-4.724-.516-5.411,0-.515,2.232-.515,2.232h-1.632V4429.7h-1.718v2.232h-1.288a2.485,2.485,0,0,0-1.116-2.576c-1.46-.773-4.724.258-6.27.859s-3.178,2.061-4.466,2.577-1.632,1.46-2.233.945-.859-2.234,0-4.037A7.5,7.5,0,0,1,2645.973,4426.948Z" transform="translate(-2622.412 -4418.332)" fill="#cefffd" stroke="#cefffd" stroke-width="1"/>
        <g id="Group_41" data-name="Group 41" transform="translate(0 0)">
          <g id="Group_40" data-name="Group 40">
            <g id="Group_37" data-name="Group 37">
              <path id="Path_107" data-name="Path 107" d="M2612.76,4420.4a26.635,26.635,0,0,0,5.695-2.233c3.238-1.675,4.578-2.233,5.918-1.9s2.233.894,2.122,1.9-2.01,1-3.461,2.233-2.568,4.913-5.136,6.03-5.471,2.121-7.481,3.573-3.015,3.126-4.131,6.476a57.606,57.606,0,0,0-1.787,8.821s-6.364,1.452-9.379-.446-3.8-2.01-3.573-5.025-.559-9.268.558-16.525-.223-9.379,2.233-12.841,2.568-4.354,4.69-4.8,5.136-1.563,5.918-1.229,7.146-.893,7.816-.558a4.679,4.679,0,0,1,1.787,1.339c.223.447,3.35-.111,4.578.447s2.122.894,2.345,2.233a22.649,22.649,0,0,1,0,4.02l-3.573.669s.781-1,0-1.451-3.685,2.568-4.02,3.908S2612.76,4420.4,2612.76,4420.4Z" transform="translate(-2591.485 -4403.815)" fill="#fbfed2" stroke="#aaa07f" stroke-width="1"/>
              <path id="Path_108" data-name="Path 108" d="M2619.3,4405.85a28.247,28.247,0,0,0-3.155.7,18.4,18.4,0,0,0-2.131,2.34" transform="translate(-2605.032 -4405.039)" fill="none" stroke="#aaa07f" stroke-linecap="round" stroke-width="1"/>
              <path id="Path_109" data-name="Path 109" d="M2641.569,4408.169a11.923,11.923,0,0,0-3.116.667,22.053,22.053,0,0,0-2.565,2.173" transform="translate(-2618.182 -4406.434)" fill="none" stroke="#aaa07f" stroke-linecap="round" stroke-width="1"/>
            </g>
            <g id="Group_38" data-name="Group 38" transform="translate(39.874)">
              <path id="Path_107-2" data-name="Path 107" d="M2605.228,4420.4a26.636,26.636,0,0,1-5.694-2.233c-3.238-1.675-4.578-2.233-5.918-1.9s-2.233.894-2.122,1.9,2.01,1,3.461,2.233,2.568,4.913,5.136,6.03,5.471,2.121,7.481,3.573,3.015,3.126,4.132,6.476a57.58,57.58,0,0,1,1.786,8.821s6.365,1.452,9.379-.446,3.8-2.01,3.573-5.025.558-9.268-.558-16.525.223-9.379-2.233-12.841-2.568-4.354-4.69-4.8-5.136-1.563-5.918-1.229-7.146-.893-7.816-.558a4.683,4.683,0,0,0-1.786,1.339c-.223.447-3.35-.111-4.578.447s-2.122.894-2.345,2.233a22.649,22.649,0,0,0,0,4.02l3.573.669s-.782-1,0-1.451,3.685,2.568,4.019,3.908S2605.228,4420.4,2605.228,4420.4Z" transform="translate(-2591.485 -4403.815)" fill="#fbfed2" stroke="#aaa07f" stroke-width="1"/>
              <path id="Path_108-2" data-name="Path 108" d="M2614.016,4405.85a28.271,28.271,0,0,1,3.155.7,18.409,18.409,0,0,1,2.13,2.34" transform="translate(-2593.266 -4405.039)" fill="none" stroke="#aaa07f" stroke-linecap="round" stroke-width="1"/>
              <path id="Path_109-2" data-name="Path 109" d="M2635.888,4408.169a11.919,11.919,0,0,1,3.116.667,21.983,21.983,0,0,1,2.566,2.173" transform="translate(-2624.256 -4406.434)" fill="none" stroke="#aaa07f" stroke-linecap="round" stroke-width="1"/>
            </g>
          </g>
          <g id="Group_39" data-name="Group 39" transform="translate(23.891 11.587)">
            <path id="Path_110" data-name="Path 110" d="M2651.4,4436.233s3.636-2.541,6.529-3.088,3.714-.156,4.222.274a4.133,4.133,0,0,1,.86,1.133" transform="translate(-2651.4 -4432.876)" fill="none" stroke="#229591" stroke-linecap="round" stroke-width="4"/>
            <path id="Path_111" data-name="Path 111" d="M2663.011,4436.233s-3.636-2.541-6.529-3.088-3.714-.156-4.222.274a4.134,4.134,0,0,0-.86,1.133" transform="translate(-2635.849 -4432.876)" fill="none" stroke="#229591" stroke-linecap="round" stroke-width="4"/>
          </g>
        </g>
      </g>
      <g id="Group_49" data-name="Group 49" transform="translate(257.05 127.36)">
        <g id="Group_44" data-name="Group 44" transform="translate(0 9.949)">
          <path id="Path_115" data-name="Path 115" d="M3372.994,4758.176c.377,1.509.943,1.7,3.585,1.887s29.438.565,30.947,0,2.076-3.02,3.4-3.586,2.076-.754,3.208,0,1.132,2.831,3.963,3.586,32.457,0,32.457,0a4.04,4.04,0,0,0,1.51-2.643c.189-1.7-1.51-3.962-1.51-3.962l-76.641-1.13a6.827,6.827,0,0,0-1.347,2.526A7.353,7.353,0,0,0,3372.994,4758.176Z" transform="translate(-3372.486 -4752.328)" fill="#cefffd" stroke="#cefffd" stroke-width="1"/>
          <path id="Path_116" data-name="Path 116" d="M3471.286,4759.607v30.26l1.532-30.26Z" transform="translate(-3431.491 -4756.705)" fill="#cefffd" stroke="#cefffd" stroke-width="1"/>
        </g>
        <g id="Group_45" data-name="Group 45" transform="translate(29.047 15.564)">
          <path id="Path_117" data-name="Path 117" d="M3444.653,4768.26a13.2,13.2,0,0,0,4.757,1.189c2.246,0,3.5-.529,3.832-1.189a3.279,3.279,0,0,0,0-1.851s.066,0-1.916.595a25.55,25.55,0,0,1-5.154.991A5.606,5.606,0,0,0,3444.653,4768.26Z" transform="translate(-3444.653 -4766.409)" fill="#f6e6b2" stroke="#aaa07f" stroke-width="1"/>
          <path id="Path_118" data-name="Path 118" d="M3453.389,4768.26a13.2,13.2,0,0,1-4.757,1.189c-2.246,0-3.5-.529-3.832-1.189a3.277,3.277,0,0,1,0-1.851s-.066,0,1.916.595a25.543,25.543,0,0,0,5.154.991A5.611,5.611,0,0,1,3453.389,4768.26Z" transform="translate(-3431.096 -4766.409)" fill="#f6e6b2" stroke="#aaa07f" stroke-width="1"/>
        </g>
        <g id="Group_43" data-name="Group 43" transform="translate(2.374 11.719)">
          <path id="Path_113" data-name="Path 113" d="M3378.577,4757.625h28.451s.581-.871,0,1.016.726,2.322-2.9,2.758-24.1,0-24.1,0a4.543,4.543,0,0,1-1.452-2.032c-.581-1.451,0-1.741,0-1.741" transform="translate(-3378.319 -4757.424)" fill="#229591" stroke="#229591" stroke-width="1"/>
          <path id="Path_114" data-name="Path 114" d="M3407.027,4757.625h-28.451s-.58-.871,0,1.016-.725,2.322,2.9,2.758,24.1,0,24.1,0a4.545,4.545,0,0,0,1.452-2.032c.581-1.451,0-1.741,0-1.741" transform="translate(-3332.463 -4757.424)" fill="#229591" stroke="#229591" stroke-width="1"/>
        </g>
        <g id="Group_48" data-name="Group 48" transform="translate(1.774)">
          <g id="Group_46" data-name="Group 46" transform="translate(49.045)">
            <path id="Path_119" data-name="Path 119" d="M3552.8,4747.136a4.209,4.209,0,0,0-1.124,2.577c.132,1.189.727,2.048,1.52,2.18a2.678,2.678,0,0,0,2.643-.594,13.21,13.21,0,0,0,2.709-3.5,8.256,8.256,0,0,0,.529-3.963,4.5,4.5,0,0,0-2.115-2.313,14.361,14.361,0,0,0-2.907-.462s.529.462,0,2.775A9.65,9.65,0,0,1,3552.8,4747.136Z" transform="translate(-3531.989 -4736.9)" fill="#fbfed2" stroke="#aaa07f" stroke-width="1"/>
            <path id="Path_120" data-name="Path 120" d="M3534.337,4741.974a16.835,16.835,0,0,0-1.718,2.444c-.594,1.123-.4,2.181.463,2.511a3.579,3.579,0,0,0,3.039-.4,25.841,25.841,0,0,0,4.757-5.615,12.445,12.445,0,0,0,1.057-4.691,3.95,3.95,0,0,0-.793-2.577,2.711,2.711,0,0,0-2.775-.925c-1.519.132-1.651.331-1.651.331a3.483,3.483,0,0,1,.4,1.651,7.783,7.783,0,0,1-.991,3.833C3535.13,4740.322,3534.337,4741.974,3534.337,4741.974Z" transform="translate(-3519.533 -4731.87)" fill="#fbfed2" stroke="#aaa07f" stroke-width="1"/>
            <path id="Path_121" data-name="Path 121" d="M3518.1,4740.264a5.54,5.54,0,0,0-.462,2.85q.4,1.882,1.784,1.981a4.4,4.4,0,0,0,3.3-1.123c.661-.858,2.577-3.568,3.105-4.559a13.856,13.856,0,0,0,1.718-3.833,7.012,7.012,0,0,0,0-3.766c-.33-.594-2.841-1.916-4.559-.66s-2.312,3.3-3.3,5.483S3518.1,4740.264,3518.1,4740.264Z" transform="translate(-3510.696 -4730.632)" fill="#fbfed2" stroke="#aaa07f" stroke-width="1"/>
            <path id="Path_122" data-name="Path 122" d="M3500.32,4740.728s.066,3.9,0,4.625.595,1.982,1.123,2.048,2.246.2,2.907-.793a8.487,8.487,0,0,0,1.255-4.493c-.132-1.388-.4-2.775.264-3.568s3.37-1.52,3.37-1.52,1.189-2.51,1.586-3.171a3.671,3.671,0,0,1,.726-.925,4.867,4.867,0,0,0-1.784-.66,13.112,13.112,0,0,0-4.823,0,8.312,8.312,0,0,0-3.238,2.048,5.367,5.367,0,0,0-1.123,3.567C3500.518,4739.341,3500.32,4740.728,3500.32,4740.728Z" transform="translate(-3500.315 -4731.483)" fill="#fbfed2" stroke="#aaa07f" stroke-width="1"/>
            <path id="Path_123" data-name="Path 123" d="M3513.69,4749.306h1.712l1.989-4.627s-1.689.6-2.105.787a3.644,3.644,0,0,0-1.388.926c-.162.324-.278.416-.208,1.458A7.248,7.248,0,0,1,3513.69,4749.306Z" transform="translate(-3508.344 -4739.078)" fill="#fbfed2" stroke="#aaa07f" stroke-width="1"/>
          </g>
          <g id="Group_47" data-name="Group 47" transform="translate(0)">
            <path id="Path_119-2" data-name="Path 119" d="M3558.031,4747.136a4.209,4.209,0,0,1,1.123,2.577c-.132,1.189-.727,2.048-1.52,2.18a2.678,2.678,0,0,1-2.643-.594,13.21,13.21,0,0,1-2.709-3.5,8.253,8.253,0,0,1-.528-3.963,4.5,4.5,0,0,1,2.114-2.313,14.361,14.361,0,0,1,2.907-.462s-.529.462,0,2.775A9.653,9.653,0,0,0,3558.031,4747.136Z" transform="translate(-3551.669 -4736.9)" fill="#fbfed2" stroke="#aaa07f" stroke-width="1"/>
            <path id="Path_120-2" data-name="Path 120" d="M3539.882,4741.974a16.835,16.835,0,0,1,1.718,2.444c.594,1.123.4,2.181-.462,2.511a3.581,3.581,0,0,1-3.04-.4,25.867,25.867,0,0,1-4.757-5.615,12.455,12.455,0,0,1-1.057-4.691,3.947,3.947,0,0,1,.793-2.577,2.711,2.711,0,0,1,2.775-.925c1.52.132,1.651.331,1.651.331a3.483,3.483,0,0,0-.4,1.651,7.8,7.8,0,0,0,.991,3.833C3539.089,4740.322,3539.882,4741.974,3539.882,4741.974Z" transform="translate(-3527.512 -4731.87)" fill="#fbfed2" stroke="#aaa07f" stroke-width="1"/>
            <path id="Path_121-2" data-name="Path 121" d="M3527.276,4740.264a5.54,5.54,0,0,1,.462,2.85q-.4,1.882-1.783,1.981a4.4,4.4,0,0,1-3.3-1.123c-.661-.858-2.576-3.568-3.105-4.559a13.849,13.849,0,0,1-1.718-3.833,7.007,7.007,0,0,1,0-3.766c.33-.594,2.841-1.916,4.559-.66s2.313,3.3,3.3,5.483S3527.276,4740.264,3527.276,4740.264Z" transform="translate(-3507.506 -4730.632)" fill="#fbfed2" stroke="#aaa07f" stroke-width="1"/>
            <path id="Path_122-2" data-name="Path 122" d="M3511.547,4740.728s-.066,3.9,0,4.625-.595,1.982-1.123,2.048-2.246.2-2.907-.793a8.494,8.494,0,0,1-1.256-4.493c.132-1.388.4-2.775-.264-3.568s-3.369-1.52-3.369-1.52-1.189-2.51-1.586-3.171a3.675,3.675,0,0,0-.727-.925,4.872,4.872,0,0,1,1.784-.66,13.111,13.111,0,0,1,4.822,0,8.315,8.315,0,0,1,3.238,2.048,5.37,5.37,0,0,1,1.124,3.567C3511.349,4739.341,3511.547,4740.728,3511.547,4740.728Z" transform="translate(-3484.377 -4731.483)" fill="#fbfed2" stroke="#aaa07f" stroke-width="1"/>
            <path id="Path_123-2" data-name="Path 123" d="M3517.371,4749.306h-1.712l-1.99-4.627s1.689.6,2.105.787a3.64,3.64,0,0,1,1.388.926c.162.324.278.416.208,1.458A7.3,7.3,0,0,0,3517.371,4749.306Z" transform="translate(-3495.542 -4739.078)" fill="#fbfed2" stroke="#aaa07f" stroke-width="1"/>
          </g>
        </g>
      </g>
      <rect id="Rectangle_195" data-name="Rectangle 195" width="134.597" height="82.704" rx="41.352" transform="translate(137.652 187.031)" fill="#fff" opacity="0.48"/>
      <g id="Group_53" data-name="Group 53" transform="translate(157.488 192.644)">
        <path id="Path_124" data-name="Path 124" d="M3268.2,4885.343h57.772a10.53,10.53,0,0,1,5.226,1.742c2.032,1.6,4.064,6.241,4.064,6.241l10.343,32.661s.4,3.919-1.343,5.951-9,2.613-9,2.613h-77.513s-5.081.291-6.242-3.483,0-8.564,0-8.564,10.306-32.079,11.032-33.386a8.235,8.235,0,0,1,2.758-3.048A27.173,27.173,0,0,1,3268.2,4885.343Z" transform="translate(-3250.99 -4878.576)" fill="#cefffd" stroke="#cefffd" stroke-width="1"/>
        <path id="Path_125" data-name="Path 125" d="M3305.753,5022.954h.893v-13.51h34.95s2.121-.334,3.014-.558,3.35-2.568,3.35-2.568a32.59,32.59,0,0,1-5.36,1.228c-2.233.223-78.384.111-78.384.111s-2.345-.223-3.35-.447,1.675,1.563,4.466,2.233,39.974,0,39.974,0Z" transform="translate(-3256.799 -4951.313)" fill="#30d5c8" stroke="#30d5c8" stroke-width="1"/>
        <g id="Rectangle_192" data-name="Rectangle 192" transform="translate(35.891 42.517)" fill="#229591" stroke="#229591" stroke-width="1">
          <rect width="22.728" height="7.177" rx="3.589" stroke="none"/>
          <rect x="0.5" y="0.5" width="21.728" height="6.177" rx="3.089" fill="none"/>
        </g>
        <g id="Group_52" data-name="Group 52" transform="translate(7.002)">
          <g id="Group_50" data-name="Group 50">
            <path id="Path_126" data-name="Path 126" d="M3278.946,4868.372h14a32.505,32.505,0,0,0-.429,6.527,12.3,12.3,0,0,0,1.8,5.754,5.566,5.566,0,0,1,1.116,4.982c-.429,2.491-1.632,5.754-1.975,8.761s.086,11.251-.515,15.289-1.2,5.153-2.233,6.271-3.951,2.92-5.669,2.834-3.436-.258-3.865-.859-1.546.171-2.92,0-1.718-.687-1.718-.687a2.578,2.578,0,0,1-1.8,0,2.747,2.747,0,0,1-1.889-1.288c-.344-.6-1.375-.258-1.718-.773a6.3,6.3,0,0,1-.6-1.46s-.945.515-1.374,0a3.546,3.546,0,0,1-.515-2.834,13.039,13.039,0,0,1,2.491-4.9c1.46-1.889,3.951-3.436,5.411-8.5s1.288-8.417,1.546-11.338,1.117-4.208,1.375-7.386a35.909,35.909,0,0,0,0-8.074A9.556,9.556,0,0,0,3278.946,4868.372Z" transform="translate(-3268.551 -4868.372)" fill="#fbfed2" stroke="#aaa07f" stroke-width="1"/>
            <path id="Path_127" data-name="Path 127" d="M3299.378,4980.782a3.66,3.66,0,0,1,0-2.337,5.88,5.88,0,0,1,2.134-2.9c.813-.711,1.068-1.067,1.068-1.372v-.864" transform="translate(-3286.977 -4931.466)" fill="none" stroke="#aaa07f" stroke-linecap="round" stroke-width="1"/>
            <path id="Path_128" data-name="Path 128" d="M3288.672,4979.365a6.353,6.353,0,0,1,0-2.781c.407-1.067,2.186-2.287,2.49-3.1a8.1,8.1,0,0,0,.407-1.575" transform="translate(-3280.54 -4930.625)" fill="none" stroke="#aaa07f" stroke-linecap="round" stroke-width="1"/>
            <path id="Path_129" data-name="Path 129" d="M3279.078,4976.912a3.793,3.793,0,0,1,.578-2.289c.661-.711,2.033-1.677,2.236-2.287s.66-2.083.66-2.083" transform="translate(-3274.878 -4929.629)" fill="none" stroke="#aaa07f" stroke-linecap="round" stroke-width="1"/>
            <path id="Path_130" data-name="Path 130" d="M3273.652,4974.757a8.2,8.2,0,0,1,.609-2.3c.457-.915,1.169-1.474,1.829-2.592" transform="translate(-3271.618 -4929.397)" fill="none" stroke="#aaa07f" stroke-linecap="round" stroke-width="1"/>
          </g>
          <g id="Group_51" data-name="Group 51" transform="translate(52.946)">
            <path id="Path_126-2" data-name="Path 126" d="M3285.183,4868.372h-14a32.512,32.512,0,0,1,.429,6.527,12.3,12.3,0,0,1-1.8,5.754,5.564,5.564,0,0,0-1.116,4.982c.429,2.491,1.632,5.754,1.975,8.761s-.085,11.251.516,15.289,1.2,5.153,2.233,6.271,3.951,2.92,5.669,2.834,3.436-.258,3.865-.859,1.546.171,2.92,0,1.718-.687,1.718-.687a2.577,2.577,0,0,0,1.8,0,2.748,2.748,0,0,0,1.89-1.288c.343-.6,1.374-.258,1.718-.773a6.3,6.3,0,0,0,.6-1.46s.945.515,1.374,0a3.547,3.547,0,0,0,.515-2.834,13.054,13.054,0,0,0-2.491-4.9c-1.46-1.889-3.951-3.436-5.411-8.5s-1.289-8.417-1.546-11.338-1.117-4.208-1.375-7.386a35.851,35.851,0,0,1,0-8.074A9.57,9.57,0,0,1,3285.183,4868.372Z" transform="translate(-3268.551 -4868.372)" fill="#fbfed2" stroke="#aaa07f" stroke-width="1"/>
            <path id="Path_127-2" data-name="Path 127" d="M3302.4,4980.782a3.66,3.66,0,0,0,0-2.337,5.88,5.88,0,0,0-2.134-2.9c-.814-.711-1.068-1.067-1.068-1.372v-.864" transform="translate(-3287.772 -4931.466)" fill="none" stroke="#aaa07f" stroke-linecap="round" stroke-width="1"/>
            <path id="Path_128-2" data-name="Path 128" d="M3291.388,4979.365a6.357,6.357,0,0,0,0-2.781c-.406-1.067-2.186-2.287-2.49-3.1a8.092,8.092,0,0,1-.406-1.575" transform="translate(-3272.492 -4930.625)" fill="none" stroke="#aaa07f" stroke-linecap="round" stroke-width="1"/>
            <path id="Path_129-2" data-name="Path 129" d="M3282.549,4976.912a3.793,3.793,0,0,0-.578-2.289c-.661-.711-2.033-1.677-2.236-2.287s-.66-2.083-.66-2.083" transform="translate(-3259.721 -4929.629)" fill="none" stroke="#aaa07f" stroke-linecap="round" stroke-width="1"/>
            <path id="Path_130-2" data-name="Path 130" d="M3276.09,4974.757a8.208,8.208,0,0,0-.608-2.3c-.458-.915-1.169-1.474-1.83-2.592" transform="translate(-3251.097 -4929.397)" fill="none" stroke="#aaa07f" stroke-linecap="round" stroke-width="1"/>
          </g>
        </g>
        <g id="Ellipse_31" data-name="Ellipse 31" transform="translate(19.144 14.605)" fill="#229591" stroke="#229591" stroke-width="1">
          <ellipse cx="4.984" cy="3.987" rx="4.984" ry="3.987" stroke="none"/>
          <ellipse cx="4.984" cy="3.987" rx="4.484" ry="3.487" fill="none"/>
        </g>
        <g id="Ellipse_32" data-name="Ellipse 32" transform="translate(15.156 39.327)" fill="#229591" stroke="#229591" stroke-width="1">
          <ellipse cx="4.984" cy="3.987" rx="4.984" ry="3.987" stroke="none"/>
          <ellipse cx="4.984" cy="3.987" rx="4.484" ry="3.487" fill="none"/>
        </g>
        <g id="Ellipse_33" data-name="Ellipse 33" transform="translate(63.803 14.605)" fill="#229591" stroke="#229591" stroke-width="1">
          <ellipse cx="4.984" cy="3.987" rx="4.984" ry="3.987" stroke="none"/>
          <ellipse cx="4.984" cy="3.987" rx="4.484" ry="3.487" fill="none"/>
        </g>
        <g id="Ellipse_34" data-name="Ellipse 34" transform="translate(68.189 39.327)" fill="#229591" stroke="#229591" stroke-width="1">
          <ellipse cx="4.984" cy="3.987" rx="4.984" ry="3.987" stroke="none"/>
          <ellipse cx="4.984" cy="3.987" rx="4.484" ry="3.487" fill="none"/>
        </g>
      </g>
    </g>
  </g>
</svg>
