<svg xmlns="http://www.w3.org/2000/svg" xmlns:xlink="http://www.w3.org/1999/xlink" width="390" height="844" viewBox="0 0 390 844">
  <defs>
    <clipPath id="clip-iPhone_13_Pro_12_Pro_8">
      <rect width="390" height="844"/>
    </clipPath>
  </defs>
  <g id="iPhone_13_Pro_12_Pro_8" data-name="iPhone 13 Pro, 12 Pro – 8" clip-path="url(#clip-iPhone_13_Pro_12_Pro_8)">
    <g id="Group_72" data-name="Group 72" transform="translate(136.261 150.41)">
      <path id="Path_77" data-name="Path 77" d="M2482.745,3313.642c.766,0-.256-.256,1.277-4.344s2.555-4.088,2.555-4.088-3.066,0-3.833-1.533a8.586,8.586,0,0,1-1.278-3.577c-.255-1.789-3.833-5.876-1.277-9.709s7.409-1.278,7.921,0,2.044,4.088,2.3,5.11,3.321,2.044,3.833,1.278,2.044-1.789,2.044-2.811-.483-6.818.794-7.584,2.016.686,2.016.686.767.767,2.044-4.088,1.022-4.855,2.811-4.855,6.643,1.533,6.132,0-4.343-3.066-4.6-3.833,3.832-.256,5.876,1.278,3.066,0,3.066,0a33.874,33.874,0,0,1-3.066-3.066c-.511-.766,4.632,1.717,6.42,3.76a12.8,12.8,0,0,0,4.056,3.024,7.616,7.616,0,0,0,0-3.718c-.511-2.044,3.066-4.344,3.322-5.877s.255-6.132-3.322-7.921,3.322-2.3,3.322-2.3a9.273,9.273,0,0,0-5.111,0c-3.066.767-1.277-2.555-1.277-2.555s-4.6.256-6.132,1.022,0-2.144,0-2.144a55.988,55.988,0,0,0-7.154-.465c-2.589.116-7.59.93-7.59.93l1.2-1.977a43.784,43.784,0,0,0-5.388-.465c-2.326,0-12.1.232-18.724,4.884s-11.514,15.706-11.979,16.866,2.209,0,2.209,0-1.512,6.975-1.279,8.6-1.279,6.164-.931,7.443,3.838,2.995,4.071,5.161,2.326,4.813,1.744,8.432a19.479,19.479,0,0,0,0,6.41,6.85,6.85,0,0,1,3.024.466c.93.582,2.21,4.768,2.326,5.931s0,2.21.814,1.977,3.838-3.14,3.838-4.536.292-1.424,1.367-1.817A5.077,5.077,0,0,1,2482.745,3313.642Z" transform="translate(-2449.534 -3253.82)" fill="#229591" stroke="#229591" stroke-width="1"/>
      <path id="Path_78" data-name="Path 78" d="M2472.07,3339.462s3.489-3.578,3.937-5.368a70.148,70.148,0,0,0,.715-7.783s3.489-1.7,4.026-2.594.358-2.684.895-3.042,1.521-.984,2.236-.805a2.685,2.685,0,0,0,1.879,0c.447-.268,0-1.968.447-3.4a38.314,38.314,0,0,1,2.952-5.278,5.419,5.419,0,0,1-2.952-1.073,5.286,5.286,0,0,1-1.878-3.757c0-1.431-1.968-3.847-2.326-5.367s-.716-3.579.716-4.92a5.7,5.7,0,0,1,4.563-1.253c.537.269,1.878.269,2.594,1.61s1.432,4.741,3.042,5.9,2.863,1.252,3.847.536,2.326-1.7,2.326-2.683-.895-4.026-.447-5.726,1.342-2.058,1.789-1.879.806.895,1.164.895,1.431-.895,2.147-3.758.537-5.1,1.521-5.1,4.473.715,5.726.715,1.878-.268,1.878-.715-.626-1.163-1.878-2.326a19,19,0,0,0-3.4-2.147c.269.089,3.131-.09,4.563.895s2.595,1.7,3.489,1.7,1.79-1.342,1.79-1.342l-3.042-2.326s4.115,1.431,4.473,1.968a10.07,10.07,0,0,1,2.863,6.8c.358,4.652.358,7.336,0,8.231s-2.147,1.7-1.968,2.684,4.2,6.977,4.741,8.5-.358,2.5-1.7,3.4-2.5.09-3.042.537.626,4.742.626,5.278-.984,1.521-1.431,2.326.179,1.7,0,2.326a2.866,2.866,0,0,1-1.7,1.521c-.626.178-.626,1.252-.537,2.237s.447,4.026-1.7,4.294a18.422,18.422,0,0,1-7.068-.716c-2.773-.716-2.5-1.61-4.473-1.073s-2.952,3.847-3.042,7.693.358,7.6.716,8.32,1.252,1.073,1.878,2.415a31.887,31.887,0,0,1,2.416,7.157c.269,2.147.626,2.773-.448,3.4s-4.2,0-5.994-1.79-4.473-5.546-7.6-7.873a26.647,26.647,0,0,0-10.2-5.1C2476.543,3340.356,2472.07,3339.462,2472.07,3339.462Z" transform="translate(-2451.702 -3259.824)" fill="#fbfed2" stroke="#aaa07f" stroke-width="1"/>
      <path id="Path_79" data-name="Path 79" d="M2465.024,3361.154s5.278-2.863,5.546-2.863,4.473.984,6.352,1.521,6.262,1.521,7.694,2.415a58.957,58.957,0,0,1,6.441,4.384c1.61,1.431,4.741,5.457,6.262,6.888a8.654,8.654,0,0,0,4.492,1.962c.477,0,1.482,0,1.853-.477a2.655,2.655,0,0,0,.37-2.435c-.265-1.376-1.165-4.182-1.218-4.341s-1.376-3.547-1.853-4.393-1.944-1.768-1.229-1.589a13.971,13.971,0,0,1,8.706,4.2,30.377,30.377,0,0,1,2.656,3.588,65.513,65.513,0,0,1,8.5,15.745c.984,2.684,5.368,15.3,6.441,24.155a78.563,78.563,0,0,1,.716,13.688,37.084,37.084,0,0,1-11.988-8.946c-5.278-6.083-13.33-19.055-15.925-23.707s-9.035-17.534-12.077-20.934-5.368-6.8-11-7.785A78.533,78.533,0,0,0,2465.024,3361.154Z" transform="translate(-2450.027 -3278.658)" fill="#30d5c8" stroke="#30d5c8" stroke-width="1"/>
      <path id="Path_80" data-name="Path 80" d="M2525.022,3456.21a135.469,135.469,0,0,1-13.1-7.875c-6.4-4.42-7.908-6.862-12.909-12.1s-6.281-7.559-13.607-13.607-18.143-14.189-22.911-18.143-11.049-9.187-12.91-17.561-1.047-13.142,1.745-17.562,7.443-6.4,8.955-6.513a29.112,29.112,0,0,1,10.7.814c4.885,1.4,5,1.628,8.374,4.535s6.978,8.723,8.606,11.4,10,18.492,12.909,23.028,8.839,13.142,13.142,16.747,7.909,4.652,16.282,11.979,29.075,25.7,32.68,28.61a25.6,25.6,0,0,0,10.583,4.884c2.791.582,10.583,1.164,12.677,1.861s7.443,4.768,8.14,5.932.349,6.745,0,7.676-2.325,1.047-2.325,1.047.029,3.139-1.416,3.208a19.372,19.372,0,0,1-2.271,0s-.137,2.2-1.445,2.891a8.948,8.948,0,0,1-3.578.619,2.394,2.394,0,0,1-2.134,2.408,26.706,26.706,0,0,1-5.987-.619c-.551-.069,2.684-1.17,2.822-2.408a3.541,3.541,0,0,0-1.79-3.785c-1.789-1.1-1.72-1.736-6.056-2.313s-8.12-2.779-12.593-7.046-9.5-6.124-15.277-8.946-13.6-7.209-13.6-7.209Z" transform="translate(-2446.118 -3279.703)" fill="#fbfed2" stroke="#aaa07f" stroke-width="1"/>
      <path id="Path_82" data-name="Path 82" d="M2635.539,3515.342s.7-3.234,0-4.978-4.071-3.722-4.071-3.722" transform="translate(-2489.6 -3313.929)" fill="none" stroke="#aaa07f" stroke-linecap="round" stroke-width="1"/>
      <path id="Path_83" data-name="Path 83" d="M2630.515,3519.567a8.305,8.305,0,0,0-.389-4.887c-1.047-2.21-4.3-4.071-4.3-4.071" transform="translate(-2488.258 -3314.871)" fill="none" stroke="#aaa07f" stroke-linecap="round" stroke-width="1"/>
      <path id="Path_84" data-name="Path 84" d="M2624.108,3524.274s.814-3.623,0-5.135-4.082-3.648-4.082-3.648" transform="translate(-2486.879 -3316.033)" fill="none" stroke="#aaa07f" stroke-linecap="round" stroke-width="1"/>
      <path id="Path_85" data-name="Path 85" d="M2451.4,3496.693s25.748,5.5,37.737,5.11,37.934-.983,37.934-.983-1.179-15.33-1.179-20.441v-14.348s-5.4-2.734-7.676-4.111a76.164,76.164,0,0,1-10.058-7.041c-3.176-2.806-8.1-8.258-10.217-10.587s-6.617-7.729-11.646-11.752-14.134-11.169-16.939-13.287-9.952-7.94-11.54-9.529a68.873,68.873,0,0,1-4.606-5.77v2.329s.885,5.548,1.333,11.989,1.342,15.3,1.342,22.187,1.163,13.688-.358,26.481S2451.4,3496.693,2451.4,3496.693Z" transform="translate(-2446.789 -3289.515)" fill="#30d5c8" stroke="#30d5c8" stroke-width="1"/>
      <path id="Path_86" data-name="Path 86" d="M2609.117,3469.752a6.176,6.176,0,0,1,3.692-1.555c1.846.1,3.886.486,5.052,1.555A9.894,9.894,0,0,1,2620,3475c-.1.874-2.137,2.526-2.137,2.526s3.109.583,4.372,0,2.429-1.263,2.623-1.749,1.651.194,2.526-.777a4.023,4.023,0,0,0,.972-2.137s2.04.1,2.818-1.166a12.322,12.322,0,0,0,1.166-3.5s.875-.1,1.069-.777a5.132,5.132,0,0,0-.388-4.372,28.968,28.968,0,0,0-3.692-4.76c-1.166-1.36-5.246-.1-11.464-2.429s-6.315-2.04-9.327-4.177-12.436-8.938-16.808-12.63-14.185-10.784-18.654-14.282-2.817-1.457-7.481-4.955-10.2-10.3-11.853-12.338-9.909-12.047-12.338-15.934-6.412-11.853-10.4-16.031a25.609,25.609,0,0,0-7.116-5.574l.034.047.073.1.3.416.229.288,1.55,2.08a64.181,64.181,0,0,1,4.542,7.933,87.478,87.478,0,0,1,5.864,14.257,151.341,151.341,0,0,1,3.686,15.271,97.863,97.863,0,0,1,1.235,15.156,124.6,124.6,0,0,1,12.338,9.22,63.794,63.794,0,0,0,16.107,10.988c7.578,3.789,17.869,8.588,21.88,10.988s8.179,3.536,10.958,7.072A32.069,32.069,0,0,0,2609.117,3469.752Z" transform="translate(-2464.022 -3281.427)" fill="#fbfed2" stroke="#aaa07f" stroke-width="1"/>
      <path id="Path_87" data-name="Path 87" d="M2655.458,3505.837a15.443,15.443,0,0,0,.923-4.586c0-2.138-3.983-4.955-3.983-4.955" transform="translate(-2494.576 -3311.469)" fill="none" stroke="#aaa07f" stroke-linecap="round" stroke-width="1"/>
      <path id="Path_88" data-name="Path 88" d="M2659.816,3501.962a11.583,11.583,0,0,0,0-4.7c-.583-1.943-3.595-4.275-3.595-4.275" transform="translate(-2495.484 -3310.681)" fill="none" stroke="#aaa07f" stroke-linecap="round" stroke-width="1"/>
      <path id="Path_89" data-name="Path 89" d="M2664.655,3496.621s-.238-2.775-1.5-4.038-3.108-2.914-3.108-2.914" transform="translate(-2496.394 -3309.894)" fill="none" stroke="#aaa07f" stroke-linecap="round" stroke-width="1"/>
      <path id="Path_90" data-name="Path 90" d="M2445.795,3619.8h54.942v-4.718h26.916V3586.5c0-26.638-1.665-56.329-1.665-56.329a238.672,238.672,0,0,1-26.187.971c-17.1-.1-9.91,1.554-25.649-.778s-24.191-4.372-24.191-4.372a332.252,332.252,0,0,0-4.166,37.842C2444.794,3584.116,2445.795,3619.8,2445.795,3619.8Z" transform="translate(-2445.35 -3318.53)" fill="#229591" stroke="#229591" stroke-width="1"/>
      <path id="Path_91" data-name="Path 91" d="M2526.929,3559.96a7.637,7.637,0,0,0-5.123,5.336c-1.067,4.269-.854,8.751-1.28,20.7s-1.067,5.977-1.281,12.167.64,13.874,0,17.289a39.4,39.4,0,0,0-.415,7.771" transform="translate(-2462.81 -3326.605)" fill="none" stroke="#fff" stroke-linecap="round" stroke-width="1"/>
      <path id="Path_92" data-name="Path 92" d="M2639.953,3509.868a9.548,9.548,0,0,0,2.786-1.15,13.765,13.765,0,0,0,2.477-2.079c.442-.486.84-.708.84-1.149a11.4,11.4,0,0,0-1.062-3.14,4.752,4.752,0,0,0-2.034-1.946,13.849,13.849,0,0,0-3.8-.8,6.1,6.1,0,0,0-2.211.8,8.129,8.129,0,0,0-1.459,1.018s1.326,1.017,2.167,1.769,1.548,1.15,1.946,2.079a10.358,10.358,0,0,1,.354,3.051Z" transform="translate(-2490.555 -3312.253)" fill="#229591" stroke="#229591" stroke-width="1"/>
      <path id="Path_93" data-name="Path 93" d="M2602.417,3520.02a6.435,6.435,0,0,1,2.963-.973,10.653,10.653,0,0,1,4.333.8,12.472,12.472,0,0,1,3.538,2.167,3.279,3.279,0,0,1,.8,2.344c-.177.619-1.46,1.548-2.654,2.078s-3.316,1.239-3.316,1.239a5.682,5.682,0,0,0,.84-3.317,5.408,5.408,0,0,0-1.68-2.918,7.57,7.57,0,0,0-2.565-1.106A8.347,8.347,0,0,0,2602.417,3520.02Z" transform="translate(-2482.693 -3316.878)" fill="#229591" stroke="#229591" stroke-width="1"/>
      <path id="Path_94" data-name="Path 94" d="M2598.228,3522.575a2.925,2.925,0,0,1,.929-.884,2.44,2.44,0,0,1,.885-.443c1.238-.265,3.759-.443,5.085.708s1.106.928,1.636,2.078a3.334,3.334,0,0,1,.221,2.875,3.918,3.918,0,0,1-1.459,2.3,5.072,5.072,0,0,1-4.112,1.194,4.181,4.181,0,0,1-3.847-3.8A5.1,5.1,0,0,1,2598.228,3522.575Z" transform="translate(-2481.511 -3317.354)" fill="#cefffd" stroke="#cefffd" stroke-width="1"/>
      <path id="Path_95" data-name="Path 95" d="M2619.541,3525.487v-4.853s.689.057.977-1.437a6.892,6.892,0,0,0,.23-1.782s1.495.172,2.069-.69a7.808,7.808,0,0,0,.575-3.1h1.035v140.888l-.635,48.092s.194,26.038,0,29.632-2.72,13.31-4.372,15.836-5.927,11.173-12.824,15.157a52.072,52.072,0,0,1-20.306,6.315c-4.76.292-19.431.583-19.431.583s-1.069-2.429,0-3.206,1.166-.194,3.012,0,18.556.874,24.58-1.36,12.047-5.15,15.156-8.647,8.452-11.076,9.813-16.808.874-23.22.874-23.22V3616.618l-.388-57.613Z" transform="translate(-2474.125 -3315.588)" fill="#229591" stroke="#229591" stroke-width="1"/>
      <path id="Path_97" data-name="Path 97" d="M2458.622,3833.638l46.138-22.494,56.318,12.314s3.448.165,1.478,1.149-43.018,25.286-43.018,25.286-2.955,1.642-5.583,1.149-50.9-14.613-53.2-15.6S2458.622,3833.638,2458.622,3833.638Z" transform="translate(-2448.505 -3386.324)" fill="#cefffd" stroke="#cefffd" stroke-width="1"/>
      <path id="Path_98" data-name="Path 98" d="M2458.448,3845.351s53.472,17.973,55.609,17.973,2.137.389,5.149-.971,22.546-14.18,22.546-14.18-1.366-.879-1.366-1.365a9.864,9.864,0,0,1,.21-1.459l-10.605,6.122s-8.744,5.344-10.2,6.024-2.817,1.749-5.247,1.457-56.094-16.711-56.094-16.711l-.547-1.166v3.789Z" transform="translate(-2448.334 -3393.44)" fill="#229591" stroke="#229591" stroke-width="1"/>
      <path id="Path_99" data-name="Path 99" d="M2589.1,3828.948l.4,3.967-16.614,8.8h-4.944Z" transform="translate(-2474.496 -3390.557)" fill="#229591" stroke="#229591" stroke-width="1"/>
      <path id="Path_96" data-name="Path 96" d="M2555.607,3834.986l-11.822,6.076s-.985,1.97,0,2.956,3.284,1.149,4.433.984,14.121-7.552,14.121-7.552.821-1.97-2.135-2.463A11.139,11.139,0,0,0,2555.607,3834.986Z" transform="translate(-2468.998 -3391.178)" fill="#229591" stroke="#229591" stroke-width="1"/>
      <path id="Path_100" data-name="Path 100" d="M2471.125,3789.416s-1.01,2.652,1.01,4.294,9.22,2.905,14.4,5.179,14.778,7.325,18.819,7.7,9.6-1.642,11.62-2.526,5.178-2.778,4.8-5.178-2.274-3.031-8.084-5.179-14.019-7.83-16.292-9.725-5.3-4.042-7.452-8.841-3.41-8.462-4.042-18.061-.379-25.386,0-31.575,1.389-15.788,1.263-19.7a66.046,66.046,0,0,1,2.4-17.43c1.768-6.315,5.683-16.292,6.694-22.229s1.895-16.04,1.895-16.04h-38.9s2.526,13.009,2.526,19.2.506,9.22-1.768,18.061-4.42,15.03-2.905,23.24,6.947,26.65,9.6,38.27,4.8,14.4,5.431,25.765S2471.125,3789.416,2471.125,3789.416Z" transform="translate(-2448.024 -3348.037)" fill="#fbfed2" stroke="#aaa07f" stroke-width="1"/>
      <path id="Path_101" data-name="Path 101" d="M2508.225,3768.3a7.985,7.985,0,0,0-.632,4.8,6.116,6.116,0,0,0,4.547,4.8c2.273.758,10.483,1.769,14.651,3.41s11.494,4.421,16.8,5.557,8.462,1.516,10.988.885,3.41-1.263,3.663-3.158-1.516-3.284-3.663-4.547-10.483-3.284-15.409-6.189-10.988-8.21-13.009-12-3.157-8.462-2.652-16.924.506-22.734.885-32.712-1.01-23.113.884-31.828,4.925-15.788,6.188-22.229,2.147-14.019,2.147-14.019h-20.082v4.673h-5.3s-1.39,14.272-2.274,17.808-4.294,13.514-5.684,17.809a67.866,67.866,0,0,0-2.9,16.672,59.629,59.629,0,0,0,2.4,15.409c1.516,5.431,4.294,14.019,5.937,21.6s4.042,12.63,3.536,19.324S2508.225,3768.3,2508.225,3768.3Z" transform="translate(-2457.716 -3346.619)" fill="#fbfed2" stroke="#aaa07f" stroke-width="1"/>
    </g>
  </g>
</svg>
